<?xml version="1.0" encoding="UTF-8"?>
<!DOCTYPE svg PUBLIC "-//W3C//DTD SVG 1.1//EN" "http://www.w3.org/Graphics/SVG/1.1/DTD/svg11.dtd">
<svg xmlns="http://www.w3.org/2000/svg" version="1.1" width="744px" height="362px" style="shape-rendering:geometricPrecision; text-rendering:geometricPrecision; image-rendering:optimizeQuality; fill-rule:evenodd; clip-rule:evenodd" xmlns:xlink="http://www.w3.org/1999/xlink">
<g><path style="opacity:1" fill="#10529a" d="M -0.5,-0.5 C 47.1667,-0.5 94.8333,-0.5 142.5,-0.5C 140.832,1.34004 139.332,3.34004 138,5.5C 137.333,19.8333 137.333,34.1667 138,48.5C 138.786,51.5827 140.619,53.7494 143.5,55C 294.5,55.6667 445.5,55.6667 596.5,55C 598.378,53.4571 599.878,51.6238 601,49.5C 601.667,34.5 601.667,19.5 601,4.5C 599.807,2.50287 598.307,0.836207 596.5,-0.5C 645.5,-0.5 694.5,-0.5 743.5,-0.5C 743.5,22.5 743.5,45.5 743.5,68.5C 495.5,68.5 247.5,68.5 -0.5,68.5C -0.5,45.5 -0.5,22.5 -0.5,-0.5 Z"/></g>
<g><path style="opacity:1" fill="#e6f2f6" d="M 142.5,-0.5 C 293.833,-0.5 445.167,-0.5 596.5,-0.5C 598.307,0.836207 599.807,2.50287 601,4.5C 601.667,19.5 601.667,34.5 601,49.5C 599.878,51.6238 598.378,53.4571 596.5,55C 445.5,55.6667 294.5,55.6667 143.5,55C 140.619,53.7494 138.786,51.5827 138,48.5C 137.333,34.1667 137.333,19.8333 138,5.5C 139.332,3.34004 140.832,1.34004 142.5,-0.5 Z"/></g>
<g><path style="opacity:1" fill="#fbfcfd" d="M 145.5,10.5 C 156.5,10.5 167.5,10.5 178.5,10.5C 178.5,21.5 178.5,32.5 178.5,43.5C 167.5,43.5 156.5,43.5 145.5,43.5C 145.5,32.5 145.5,21.5 145.5,10.5 Z"/></g>
<g><path style="opacity:1" fill="#3f454b" d="M 538.5,17.5 C 547.173,17.3336 555.84,17.5002 564.5,18C 565.642,24.0844 565.809,30.2511 565,36.5C 556.245,37.6497 547.412,37.8163 538.5,37C 537.185,30.5003 537.185,24.0003 538.5,17.5 Z"/></g>
<g><path style="opacity:1" fill="#3c4349" d="M 569.5,17.5 C 578.839,17.3335 588.173,17.5002 597.5,18C 598.642,24.0844 598.809,30.2511 598,36.5C 588.578,37.6509 579.078,37.8176 569.5,37C 568.185,30.5003 568.185,24.0003 569.5,17.5 Z"/></g>
<g><path style="opacity:1" fill="#2277bf" d="M 168.5,19.5 C 164.5,20.8333 160.5,20.8333 156.5,19.5C 160.39,16.8997 164.39,16.8997 168.5,19.5 Z"/></g>
<g><path style="opacity:1" fill="#6faed9" d="M 156.5,19.5 C 160.5,20.8333 164.5,20.8333 168.5,19.5C 169.833,20.1667 169.833,20.8333 168.5,21.5C 164.167,21.5 159.833,21.5 155.5,21.5C 155.328,20.5084 155.662,19.8417 156.5,19.5 Z"/></g>
<g><path style="opacity:1" fill="#16181a" d="M 239.5,20.5 C 242.5,20.5 245.5,20.5 248.5,20.5C 248.5,21.5 248.5,22.5 248.5,23.5C 246.473,23.3379 244.473,23.5045 242.5,24C 244.134,24.4935 245.801,24.6602 247.5,24.5C 247.5,25.5 247.5,26.5 247.5,27.5C 245.712,27.2148 244.045,27.5481 242.5,28.5C 244.975,28.9642 246.975,29.9642 248.5,31.5C 245.5,31.5 242.5,31.5 239.5,31.5C 239.5,27.8333 239.5,24.1667 239.5,20.5 Z"/></g>
<g><path style="opacity:1" fill="#1c1a1b" d="M 327.5,29.5 C 325.012,31.3878 322.012,32.0545 318.5,31.5C 318.5,27.8333 318.5,24.1667 318.5,20.5C 321.833,20.5 325.167,20.5 328.5,20.5C 328.5,21.5 328.5,22.5 328.5,23.5C 326.473,23.3379 324.473,23.5045 322.5,24C 324.134,24.4935 325.801,24.6602 327.5,24.5C 327.5,25.5 327.5,26.5 327.5,27.5C 320.833,28.1667 320.833,28.8333 327.5,29.5 Z"/></g>
<g><path style="opacity:1" fill="#131314" d="M 361.5,31.5 C 359.78,29.3419 358.947,26.6752 359,23.5C 358.536,24.0944 358.369,24.7611 358.5,25.5C 357.776,27.2184 357.109,29.0517 356.5,31C 354.843,31.7252 353.843,31.2252 353.5,29.5C 354.771,28.3152 355.771,26.3152 356.5,23.5C 356.5,22.5 356.5,21.5 356.5,20.5C 358.167,20.5 359.833,20.5 361.5,20.5C 361.5,24.1667 361.5,27.8333 361.5,31.5 Z"/></g>
<g><path style="opacity:1" fill="#1c181a" d="M 380.5,27.5 C 379.566,28.5676 379.232,29.901 379.5,31.5C 378.5,31.5 377.5,31.5 376.5,31.5C 376.5,27.8333 376.5,24.1667 376.5,20.5C 379.518,20.3354 382.518,20.502 385.5,21C 388.08,23.1203 388.08,25.287 385.5,27.5C 388.784,30.976 388.117,32.6427 383.5,32.5C 383.727,30.0672 382.727,28.4006 380.5,27.5 Z"/></g>
<g><path style="opacity:1" fill="#141517" d="M 388.5,20.5 C 392.167,20.5 395.833,20.5 399.5,20.5C 399.5,21.5 399.5,22.5 399.5,23.5C 398.167,23.5 396.833,23.5 395.5,23.5C 395.5,26.5 395.5,29.5 395.5,32.5C 394.5,32.5 393.5,32.5 392.5,32.5C 392.5,29.5 392.5,26.5 392.5,23.5C 391.167,23.5 389.833,23.5 388.5,23.5C 388.5,22.5 388.5,21.5 388.5,20.5 Z"/></g>
<g><path style="opacity:1" fill="#202122" d="M 283.5,20.5 C 286.482,20.1044 289.149,20.7711 291.5,22.5C 289.5,22.8333 287.5,23.1667 285.5,23.5C 287.49,24.8732 289.657,25.8732 292,26.5C 291.89,31.2534 289.39,33.0867 284.5,32C 282.441,30.8145 282.274,29.6479 284,28.5C 285.578,29.5472 287.078,29.5472 288.5,28.5C 286.614,27.5937 284.78,26.5937 283,25.5C 282.36,23.735 282.527,22.0683 283.5,20.5 Z"/></g>
<g><path style="opacity:1" fill="#1a1819" d="M 335.5,28.5 C 335.44,27.9569 335.107,27.6236 334.5,27.5C 333.571,28.6888 333.238,30.0222 333.5,31.5C 332.5,31.5 331.5,31.5 330.5,31.5C 330.5,27.8333 330.5,24.1667 330.5,20.5C 333.777,20.2161 336.943,20.5495 340,21.5C 340.687,23.5675 340.52,25.5675 339.5,27.5C 340.167,28.8333 340.833,30.1667 341.5,31.5C 340.833,31.8333 340.167,32.1667 339.5,32.5C 337.712,31.563 336.379,30.2297 335.5,28.5 Z"/></g>
<g><path style="opacity:1" fill="#1e1d1d" d="M 252.5,20.5 C 255.602,20.154 258.435,20.8207 261,22.5C 261.432,23.6001 260.932,24.2668 259.5,24.5C 254.391,22.4454 252.724,23.9454 254.5,29C 256.464,29.624 258.131,29.124 259.5,27.5C 260.214,31.9231 258.214,33.4231 253.5,32C 249.92,28.4419 249.587,24.6085 252.5,20.5 Z"/></g>
<g><path style="opacity:1" fill="#3c3733" d="M 349.5,20.5 C 349.335,24.1817 349.501,27.8484 350,31.5C 350.372,27.6818 351.206,24.0151 352.5,20.5C 353.793,21.842 354.626,23.5087 355,25.5C 355.278,24.5842 355.778,23.9175 356.5,23.5C 355.771,26.3152 354.771,28.3152 353.5,29.5C 352.698,28.0484 352.198,26.3817 352,24.5C 351.503,27.146 351.336,29.8127 351.5,32.5C 350.5,32.5 349.5,32.5 348.5,32.5C 348.183,28.2984 348.517,24.2984 349.5,20.5 Z"/></g>
<g><path style="opacity:1" fill="#07080a" d="M 349.5,20.5 C 350.5,20.5 351.5,20.5 352.5,20.5C 351.206,24.0151 350.372,27.6818 350,31.5C 349.501,27.8484 349.335,24.1817 349.5,20.5 Z"/></g>
<g><path style="opacity:1" fill="#686c6d" d="M 333.5,23.5 C 334.978,23.238 336.311,23.5713 337.5,24.5C 336.833,24.8333 336.167,25.1667 335.5,25.5C 334.287,25.2528 333.62,24.5862 333.5,23.5 Z"/></g>
<g><path style="opacity:1" fill="#787b79" d="M 380.5,23.5 C 381.675,23.281 382.675,23.6143 383.5,24.5C 381.948,25.7979 380.948,25.4646 380.5,23.5 Z"/></g>
<g><path style="opacity:1" fill="#898989" d="M 168.5,22.5 C 169.915,22.094 171.081,22.7607 172,24.5C 172.602,27.2205 172.435,29.8872 171.5,32.5C 170.761,32.631 170.094,32.4643 169.5,32C 170.591,29.9361 170.758,27.7695 170,25.5C 168.048,27.3373 167.048,29.6706 167,32.5C 166.833,30.8333 166.667,29.1667 166.5,27.5C 166.556,25.3603 167.223,23.6936 168.5,22.5 Z"/></g>
<g><path style="opacity:1" fill="#898989" d="M 153.5,22.5 C 155.288,22.2148 156.955,22.5481 158.5,23.5C 157.443,23.9059 156.109,23.9059 154.5,23.5C 154.5,24.5 154.5,25.5 154.5,26.5C 159.833,27.1667 159.833,27.8333 154.5,28.5C 154.633,31.8957 155.633,32.2291 157.5,29.5C 158.386,30.325 158.719,31.325 158.5,32.5C 157.167,32.5 155.833,32.5 154.5,32.5C 152.303,29.4371 151.97,26.1038 153.5,22.5 Z"/></g>
<g><path style="opacity:1" fill="#1c1c1d" d="M 305.5,30.5 C 305.38,31.5862 304.713,32.2528 303.5,32.5C 302.051,31.7202 300.551,31.0535 299,30.5C 297.2,31.3784 295.367,32.045 293.5,32.5C 294.884,28.6641 295.884,24.6641 296.5,20.5C 298.467,20.2606 300.301,20.5939 302,21.5C 302.9,24.7177 304.067,27.7177 305.5,30.5 Z"/></g>
<g><path style="opacity:1" fill="#a2a39b" d="M 298.5,24.5 C 300.332,25.1405 300.665,26.1405 299.5,27.5C 298.614,26.675 298.281,25.675 298.5,24.5 Z"/></g>
<g><path style="opacity:1" fill="#131212" d="M 308.5,20.5 C 308.41,23.1522 309.076,25.4855 310.5,27.5C 311.864,25.78 312.864,23.78 313.5,21.5C 314.325,20.6143 315.325,20.281 316.5,20.5C 315.301,24.0986 314.301,27.7653 313.5,31.5C 311.856,31.7135 310.356,31.3802 309,30.5C 308.058,27.6262 306.891,24.9596 305.5,22.5C 305.821,20.9519 306.821,20.2852 308.5,20.5 Z"/></g>
<g><path style="opacity:1" fill="#495d73" d="M 308.5,20.5 C 309.924,22.5145 310.59,24.8478 310.5,27.5C 309.076,25.4855 308.41,23.1522 308.5,20.5 Z"/></g>
<g><path style="opacity:1" fill="#222223" d="M 366.5,20.5 C 368.288,20.2148 369.955,20.5481 371.5,21.5C 373.132,25.09 374.466,28.7567 375.5,32.5C 373.226,32.2849 371.059,31.6182 369,30.5C 367.2,31.3784 365.367,32.045 363.5,32.5C 364.188,28.4163 365.188,24.4163 366.5,20.5 Z"/></g>
<g><path style="opacity:1" fill="#99968b" d="M 368.5,24.5 C 370.332,25.1405 370.665,26.1405 369.5,27.5C 368.614,26.675 368.281,25.675 368.5,24.5 Z"/></g>
<g><path style="opacity:1" fill="#d6d6d6" d="M 153.5,22.5 C 153.842,21.6618 154.508,21.3284 155.5,21.5C 159.833,21.5 164.167,21.5 168.5,21.5C 168.5,21.8333 168.5,22.1667 168.5,22.5C 167.223,23.6936 166.556,25.3603 166.5,27.5C 166.667,29.1667 166.833,30.8333 167,32.5C 167.048,29.6706 168.048,27.3373 170,25.5C 170.758,27.7695 170.591,29.9361 169.5,32C 170.094,32.4643 170.761,32.631 171.5,32.5C 171.158,33.3382 170.492,33.6716 169.5,33.5C 164.833,33.5 160.167,33.5 155.5,33.5C 154.833,33.5 154.5,33.1667 154.5,32.5C 155.833,32.5 157.167,32.5 158.5,32.5C 158.719,31.325 158.386,30.325 157.5,29.5C 155.633,32.2291 154.633,31.8957 154.5,28.5C 159.833,27.8333 159.833,27.1667 154.5,26.5C 154.5,25.5 154.5,24.5 154.5,23.5C 156.109,23.9059 157.443,23.9059 158.5,23.5C 156.955,22.5481 155.288,22.2148 153.5,22.5 Z"/></g>
<g><path style="opacity:1" fill="#8a8a8a" d="M 159.5,22.5 C 161.604,22.2011 163.604,22.5344 165.5,23.5C 164.113,23.8072 162.446,23.8072 160.5,23.5C 160.5,24.5 160.5,25.5 160.5,26.5C 162.167,26.5 163.833,26.5 165.5,26.5C 165.5,28.5 165.5,30.5 165.5,32.5C 163.5,32.5 161.5,32.5 159.5,32.5C 159.351,31.448 159.517,30.448 160,29.5C 160.71,30.9733 161.876,31.6399 163.5,31.5C 163.5,30.5 163.5,29.5 163.5,28.5C 162.167,28.5 160.833,28.5 159.5,28.5C 159.5,26.5 159.5,24.5 159.5,22.5 Z"/></g>
<g><path style="opacity:1" fill="#889295" d="M 555.5,24.5 C 557.011,25.5025 558.678,26.1692 560.5,26.5C 560.5,27.5 560.5,28.5 560.5,29.5C 558.833,29.5 557.167,29.5 555.5,29.5C 555.5,27.8333 555.5,26.1667 555.5,24.5 Z"/></g>
<g><path style="opacity:1" fill="#141415" d="M 265.5,20.5 C 274.488,19.7555 276.821,23.2555 272.5,31C 263.43,32.1782 261.097,28.6782 265.5,20.5 Z"/></g>
<g><path style="opacity:1" fill="#ced6d8" d="M 266.5,23.5 C 271.159,23.0146 272.492,24.848 270.5,29C 269.216,29.6838 268.049,29.5171 267,28.5C 266.506,26.8659 266.34,25.1992 266.5,23.5 Z"/></g>
<g><path style="opacity:1" fill="#657682" d="M 335.5,28.5 C 334.566,29.5676 334.232,30.901 334.5,32.5C 332.901,32.7678 331.568,32.4345 330.5,31.5C 331.5,31.5 332.5,31.5 333.5,31.5C 333.238,30.0222 333.571,28.6888 334.5,27.5C 335.107,27.6236 335.44,27.9569 335.5,28.5 Z"/></g>
<g><path style="opacity:1" fill="#6c573c" d="M 361.5,31.5 C 360.791,32.404 359.791,32.7373 358.5,32.5C 358.5,30.1667 358.5,27.8333 358.5,25.5C 358.369,24.7611 358.536,24.0944 359,23.5C 358.947,26.6752 359.78,29.3419 361.5,31.5 Z"/></g>
<g><path style="opacity:1" fill="#8f8e91" d="M 542.5,24.5 C 545.986,25.9525 549.653,26.6192 553.5,26.5C 553.5,27.5 553.5,28.5 553.5,29.5C 549.878,30.4184 546.212,30.4184 542.5,29.5C 542.5,27.8333 542.5,26.1667 542.5,24.5 Z"/></g>
<g><path style="opacity:1" fill="#84878e" d="M 572.5,24.5 C 576.318,26.013 580.318,26.6796 584.5,26.5C 584.5,27.5 584.5,28.5 584.5,29.5C 582.516,29.3832 580.85,30.0499 579.5,31.5C 577.49,29.8287 575.157,29.162 572.5,29.5C 572.5,27.8333 572.5,26.1667 572.5,24.5 Z"/></g>
<g><path style="opacity:1" fill="#878d90" d="M 586.5,24.5 C 587.835,29.5354 589.001,29.5354 590,24.5C 591.204,25.8586 592.704,26.8586 594.5,27.5C 593.833,28.8333 592.833,29.8333 591.5,30.5C 589.929,29.6906 588.262,29.3573 586.5,29.5C 586.5,27.8333 586.5,26.1667 586.5,24.5 Z"/></g>
<g><path style="opacity:1" fill="#babbb5" d="M 305.5,22.5 C 306.891,24.9596 308.058,27.6262 309,30.5C 310.356,31.3802 311.856,31.7135 313.5,31.5C 310.783,32.767 308.117,32.4337 305.5,30.5C 306.254,27.9223 306.254,25.2556 305.5,22.5 Z"/></g>
<g><path style="opacity:1" fill="#656156" d="M 239.5,20.5 C 239.5,24.1667 239.5,27.8333 239.5,31.5C 242.5,31.5 245.5,31.5 248.5,31.5C 245.375,32.4794 242.042,32.8128 238.5,32.5C 238.183,28.2984 238.517,24.2984 239.5,20.5 Z"/></g>
<g><path style="opacity:1" fill="#565d64" d="M 327.5,29.5 C 328.404,30.209 328.737,31.209 328.5,32.5C 324.958,32.8128 321.625,32.4794 318.5,31.5C 322.012,32.0545 325.012,31.3878 327.5,29.5 Z"/></g>
<g><path style="opacity:1" fill="#55546d" d="M 380.5,27.5 C 380.5,29.1667 380.5,30.8333 380.5,32.5C 378.901,32.7678 377.568,32.4345 376.5,31.5C 377.5,31.5 378.5,31.5 379.5,31.5C 379.232,29.901 379.566,28.5676 380.5,27.5 Z"/></g>
<g><path style="opacity:1" fill="#61a5d3" d="M 155.5,33.5 C 160.167,33.5 164.833,33.5 169.5,33.5C 169.167,34.5 168.5,35.1667 167.5,35.5C 163.833,34.1667 160.167,34.1667 156.5,35.5C 155.662,35.1583 155.328,34.4916 155.5,33.5 Z"/></g>
<g><path style="opacity:1" fill="#2779c0" d="M 156.5,35.5 C 160.167,34.1667 163.833,34.1667 167.5,35.5C 163.833,38.1667 160.167,38.1667 156.5,35.5 Z"/></g>
<g><path style="opacity:1" fill="#ede6f6" d="M -0.5,68.5 C 247.5,68.5 495.5,68.5 743.5,68.5C 743.5,79.8333 743.5,91.1667 743.5,102.5C 495.5,102.5 247.5,102.5 -0.5,102.5C -0.5,91.1667 -0.5,79.8333 -0.5,68.5 Z"/></g>
<g><path style="opacity:1" fill="#fefefe" d="M 187.5,74.5 C 308.834,74.3333 430.167,74.5 551.5,75C 559.788,78.8049 561.621,84.6382 557,92.5C 555.829,93.8932 554.329,94.7265 552.5,95C 430.167,95.6667 307.833,95.6667 185.5,95C 179.342,90.5323 178.175,85.0323 182,78.5C 183.812,77.0229 185.645,75.6896 187.5,74.5 Z"/></g>
<g><path style="opacity:1" fill="#bfd2e4" d="M 217.5,83.5 C 218.5,83.5 219.5,83.5 220.5,83.5C 220.5,85.1667 220.5,86.8333 220.5,88.5C 219.5,88.5 218.5,88.5 217.5,88.5C 217.5,86.8333 217.5,85.1667 217.5,83.5 Z"/></g>
<g><path style="opacity:1" fill="#888888" d="M 185.5,80.5 C 188.044,80.1043 190.211,80.771 192,82.5C 192.151,85.1193 192.985,87.4527 194.5,89.5C 194.167,89.8333 193.833,90.1667 193.5,90.5C 190.289,89.2196 187.122,87.8863 184,86.5C 183.252,84.1599 183.752,82.1599 185.5,80.5 Z"/></g>
<g><path style="opacity:1" fill="#f7f7f7" d="M 186.5,81.5 C 189.91,81.3838 191.244,83.0504 190.5,86.5C 188.833,86.5 187.167,86.5 185.5,86.5C 185.366,84.7085 185.699,83.0418 186.5,81.5 Z"/></g>
<g><path style="opacity:1" fill="#c5d6e7" d="M 228.5,81.5 C 231.63,82.796 233.963,84.9627 235.5,88C 232.167,88.6667 228.833,88.6667 225.5,88C 224.483,86.9505 224.316,85.7839 225,84.5C 226.729,84.0257 227.895,83.0257 228.5,81.5 Z"/></g>
<g><path style="opacity:1" fill="#b6cbe0" d="M 207.5,82.5 C 208.815,83.4756 210.148,84.4756 211.5,85.5C 213.093,83.3397 214.76,83.173 216.5,85C 213.057,85.2213 212.724,86.2213 215.5,88C 212.877,88.1109 210.21,87.9442 207.5,87.5C 208.167,87.1667 208.833,86.8333 209.5,86.5C 208.37,85.3777 207.703,84.0443 207.5,82.5 Z"/></g>
<g><path style="opacity:1" fill="#e7f3f7" d="M -0.5,102.5 C 247.5,102.5 495.5,102.5 743.5,102.5C 743.5,188.833 743.5,275.167 743.5,361.5C 696.5,361.5 649.5,361.5 602.5,361.5C 602.667,293.833 602.5,226.166 602,158.5C 600.833,156 599,154.167 596.5,153C 445.333,152.167 294.333,152.334 143.5,153.5C 140.944,154.543 138.777,156.21 137,158.5C 136.5,226.166 136.333,293.833 136.5,361.5C 90.8333,361.5 45.1667,361.5 -0.5,361.5C -0.5,275.167 -0.5,188.833 -0.5,102.5 Z"/></g>
<g><path style="opacity:1" fill="#9cbbd7" d="M 595.5,111.5 C 594.833,111.5 594.5,111.833 594.5,112.5C 443.833,112.5 293.167,112.5 142.5,112.5C 142.611,111.883 142.944,111.383 143.5,111C 294.334,110.167 445.001,110.334 595.5,111.5 Z"/></g>
<g><path style="opacity:1" fill="#e8f3f7" d="M 142.5,112.5 C 293.167,112.5 443.833,112.5 594.5,112.5C 600.805,115.449 603.138,120.449 601.5,127.5C 603.138,134.551 600.805,139.551 594.5,142.5C 443.833,142.667 293.166,142.5 142.5,142C 140.951,140.786 139.785,139.286 139,137.5C 138.333,130.833 138.333,124.167 139,117.5C 139.997,115.677 141.164,114.01 142.5,112.5 Z"/></g>
<g><path style="opacity:1" fill="#9cbcd7" d="M 142.5,112.5 C 141.164,114.01 139.997,115.677 139,117.5C 138.333,124.167 138.333,130.833 139,137.5C 139.785,139.286 140.951,140.786 142.5,142C 293.166,142.5 443.833,142.667 594.5,142.5C 444.833,143.167 295.167,143.833 145.5,144.5C 141.246,143.415 138.413,140.748 137,136.5C 136.333,130.167 136.333,123.833 137,117.5C 138.076,114.921 139.909,113.254 142.5,112.5 Z"/></g>
<g><path style="opacity:1" fill="#3e4449" d="M 315.5,119.5 C 321.386,118.343 326.219,120.01 330,124.5C 330.959,128.421 329.792,131.588 326.5,134C 315.5,138.637 310.333,135.137 311,123.5C 312.397,121.93 313.897,120.596 315.5,119.5 Z"/></g>
<g><path style="opacity:1" fill="#3d434a" d="M 337.5,119.5 C 343.176,119.334 348.843,119.501 354.5,120C 362.393,124.91 362.393,129.91 354.5,135C 348.833,135.667 343.167,135.667 337.5,135C 330.901,129.788 330.901,124.621 337.5,119.5 Z"/></g>
<g><path style="opacity:1" fill="#3e444a" d="M 367.5,119.5 C 373.509,119.334 379.509,119.501 385.5,120C 391.617,122.366 393.117,126.533 390,132.5C 388.745,133.211 387.579,134.044 386.5,135C 379.392,135.924 372.392,135.591 365.5,134C 360.927,128.283 361.594,123.45 367.5,119.5 Z"/></g>
<g><path style="opacity:1" fill="#3d4449" d="M 399.5,119.5 C 407.507,119.334 415.507,119.5 423.5,120C 428.143,122.072 429.643,125.572 428,130.5C 427.167,132.667 425.667,134.167 423.5,135C 415.167,135.667 406.833,135.667 398.5,135C 392.873,129.274 393.206,124.108 399.5,119.5 Z"/></g>
<g><path style="opacity:1" fill="#adb0b1" d="M 338.5,124.5 C 344.013,126.801 349.679,127.134 355.5,125.5C 355.5,127.167 355.5,128.833 355.5,130.5C 351.572,129.76 347.739,129.76 344,130.5C 342.739,130.241 341.739,129.574 341,128.5C 340.692,129.308 340.192,129.975 339.5,130.5C 338.534,128.604 338.201,126.604 338.5,124.5 Z"/></g>
<g><path style="opacity:1" fill="#b4b7b8" d="M 367.5,125.5 C 373.851,125.93 380.185,126.597 386.5,127.5C 385.917,129.002 385.084,130.335 384,131.5C 383.013,127.233 382.179,126.9 381.5,130.5C 376.74,129.977 372.073,129.977 367.5,130.5C 367.5,128.833 367.5,127.167 367.5,125.5 Z"/></g>
<g><path style="opacity:1" fill="#b7b8b7" d="M 399.5,125.5 C 406.658,125.76 413.991,126.26 421.5,127C 423.994,129.393 423.327,130.56 419.5,130.5C 419.404,126.689 418.738,126.689 417.5,130.5C 415.342,129.998 413.009,129.998 410.5,130.5C 408.359,130.387 406.525,129.72 405,128.5C 401.118,131.587 399.284,130.587 399.5,125.5 Z"/></g>
<g><path style="opacity:1" fill="#adaeaf" d="M 316.5,125.5 C 318.124,125.36 319.29,126.027 320,127.5C 321.049,125.893 322.549,125.227 324.5,125.5C 324.5,127.167 324.5,128.833 324.5,130.5C 321.72,130.055 319.053,130.055 316.5,130.5C 315.566,128.905 315.566,127.239 316.5,125.5 Z"/></g>
<g><path style="opacity:1" fill="#4b82b6" d="M 594.5,112.5 C 594.5,111.833 594.833,111.5 595.5,111.5C 598.428,112.591 600.594,114.591 602,117.5C 602.667,124.167 602.667,130.833 602,137.5C 600.5,140.333 598.333,142.5 595.5,144C 445.5,144.5 295.5,144.667 145.5,144.5C 295.167,143.833 444.833,143.167 594.5,142.5C 600.805,139.551 603.138,134.551 601.5,127.5C 603.138,120.449 600.805,115.449 594.5,112.5 Z"/></g>
<g><path style="opacity:1" fill="#e8f4f8" d="M 143.5,153.5 C 293.834,153.333 444.167,153.5 594.5,154C 598.089,154.754 600.089,156.921 600.5,160.5C 600.667,173.837 600.5,187.171 600,200.5C 598.61,194.109 594.776,189.942 588.5,188C 557.833,187.333 527.167,187.333 496.5,188C 491.264,189.232 487.098,192.065 484,196.5C 481.421,192.484 477.921,189.651 473.5,188C 442.833,187.333 412.167,187.333 381.5,188C 376.569,189.254 372.735,192.087 370,196.5C 366.902,192.065 362.736,189.232 357.5,188C 327.167,187.333 296.833,187.333 266.5,188C 261.544,189.286 257.711,192.12 255,196.5C 251.902,192.065 247.736,189.232 242.5,188C 212.167,187.333 181.833,187.333 151.5,188C 146.914,188.911 143.414,191.411 141,195.5C 140.667,184.167 140.333,172.833 140,161.5C 139.5,228.166 139.333,294.833 139.5,361.5C 139.167,361.5 138.833,361.5 138.5,361.5C 138.333,293.833 138.5,226.166 139,158.5C 140.707,156.963 142.207,155.296 143.5,153.5 Z"/></g>
<g><path style="opacity:1" fill="#dfebef" d="M 600.5,160.5 C 601.499,227.331 601.832,294.331 601.5,361.5C 597.167,361.5 592.833,361.5 588.5,361.5C 591.2,359.954 593.033,357.621 594,354.5C 594.667,302.5 594.667,250.5 594,198.5C 593.722,197.584 593.222,196.918 592.5,196.5C 590.772,194.774 588.772,193.441 586.5,192.5C 556.003,191.336 525.336,191.169 494.5,192C 493.333,193.167 492.167,194.333 491,195.5C 489.841,222.249 489.341,249.082 489.5,276C 489.5,302.335 489.833,328.502 490.5,354.5C 491.002,357.669 492.669,360.002 495.5,361.5C 488.167,361.5 480.833,361.5 473.5,361.5C 475.475,360.354 476.975,358.687 478,356.5C 478.991,302.417 478.658,248.417 477,194.5C 476.167,193.667 475.333,192.833 474.5,192C 443.835,191.5 413.168,191.333 382.5,191.5C 379.358,191.799 377.191,193.466 376,196.5C 375.5,249.166 375.333,301.832 375.5,354.5C 376.044,357.7 377.71,360.033 380.5,361.5C 373.167,361.5 365.833,361.5 358.5,361.5C 360.883,360.115 362.55,358.115 363.5,355.5C 364.665,302.668 364.832,249.668 364,196.5C 363.292,195.619 362.458,194.953 361.5,194.5C 360.657,192.827 359.324,191.66 357.5,191C 327.331,190.169 297.331,190.336 267.5,191.5C 264.358,191.799 262.191,193.466 261,196.5C 260.5,249.166 260.333,301.832 260.5,354.5C 261.044,357.7 262.71,360.033 265.5,361.5C 258.167,361.5 250.833,361.5 243.5,361.5C 245.103,360.404 246.603,359.07 248,357.5C 248.667,303.5 248.667,249.5 248,195.5C 247.617,194.944 247.117,194.611 246.5,194.5C 244.833,193.833 243.167,193.167 241.5,192.5C 211.336,191.336 181.003,191.169 150.5,192C 149.069,192.465 147.903,193.299 147,194.5C 145.346,248.108 145.013,301.775 146,355.5C 146.377,356.942 147.21,357.942 148.5,358.5C 148.782,359.778 149.449,360.778 150.5,361.5C 146.833,361.5 143.167,361.5 139.5,361.5C 139.333,294.833 139.5,228.166 140,161.5C 140.333,172.833 140.667,184.167 141,195.5C 143.414,191.411 146.914,188.911 151.5,188C 181.833,187.333 212.167,187.333 242.5,188C 247.736,189.232 251.902,192.065 255,196.5C 257.711,192.12 261.544,189.286 266.5,188C 296.833,187.333 327.167,187.333 357.5,188C 362.736,189.232 366.902,192.065 370,196.5C 372.735,192.087 376.569,189.254 381.5,188C 412.167,187.333 442.833,187.333 473.5,188C 477.921,189.651 481.421,192.484 484,196.5C 487.098,192.065 491.264,189.232 496.5,188C 527.167,187.333 557.833,187.333 588.5,188C 594.776,189.942 598.61,194.109 600,200.5C 600.5,187.171 600.667,173.837 600.5,160.5 Z"/></g>
<g><path style="opacity:1" fill="#f4f6f7" d="M 349.5,161.5 C 362.837,161.333 376.171,161.5 389.5,162C 390.641,167.75 390.807,173.584 390,179.5C 376.575,180.656 363.075,180.822 349.5,180C 348.186,173.834 348.186,167.667 349.5,161.5 Z"/></g>
<g><path style="opacity:1" fill="#96b8d5" d="M 143.5,153.5 C 142.207,155.296 140.707,156.963 139,158.5C 138.5,226.166 138.333,293.833 138.5,361.5C 137.833,361.5 137.167,361.5 136.5,361.5C 136.333,293.833 136.5,226.166 137,158.5C 138.777,156.21 140.944,154.543 143.5,153.5 Z"/></g>
<g><path style="opacity:1" fill="#578bba" d="M 143.5,153.5 C 294.333,152.334 445.333,152.167 596.5,153C 599,154.167 600.833,156 602,158.5C 602.5,226.166 602.667,293.833 602.5,361.5C 602.167,361.5 601.833,361.5 601.5,361.5C 601.832,294.331 601.499,227.331 600.5,160.5C 600.089,156.921 598.089,154.754 594.5,154C 444.167,153.5 293.834,153.333 143.5,153.5 Z"/></g>
<g><path style="opacity:1" fill="#74767a" d="M 354.5,167.5 C 356.451,167.227 357.951,167.893 359,169.5C 361.978,169.672 364.978,169.005 368,167.5C 368.273,169.101 368.773,170.601 369.5,172C 369.167,172.167 368.833,172.333 368.5,172.5C 367.167,168.5 365.833,168.5 364.5,172.5C 361.868,172.301 359.202,172.301 356.5,172.5C 355.833,172.167 355.167,171.833 354.5,171.5C 355.363,170.274 355.363,168.94 354.5,167.5 Z"/></g>
<g><path style="opacity:1" fill="#54575a" d="M 379.5,166.5 C 380.376,166.369 381.043,166.702 381.5,167.5C 380.77,170.109 380.27,172.776 380,175.5C 379.502,172.518 379.335,169.518 379.5,166.5 Z"/></g>
<g><path style="opacity:1" fill="#737679" d="M 375.5,165.5 C 376.777,166.694 377.444,168.36 377.5,170.5C 377.167,172.167 376.833,173.833 376.5,175.5C 375.5,175.167 374.833,174.5 374.5,173.5C 375.393,170.916 375.726,168.249 375.5,165.5 Z"/></g>
<g><path style="opacity:1" fill="#b9c2c6" d="M 267.5,191.5 C 297.331,190.336 327.331,190.169 357.5,191C 359.324,191.66 360.657,192.827 361.5,194.5C 359.833,193.833 358.167,193.167 356.5,192.5C 327.005,191.502 297.338,191.169 267.5,191.5 Z"/></g>
<g><path style="opacity:1" fill="#fafbfb" d="M 241.5,192.5 C 243.167,193.167 244.833,193.833 246.5,194.5C 247.658,248.459 247.825,302.459 247,356.5C 245.786,358.049 244.286,359.215 242.5,360C 212.5,360.667 182.5,360.667 152.5,360C 151.255,359.209 149.922,358.709 148.5,358.5C 148.291,357.078 147.791,355.745 147,354.5C 146.833,328.5 146.667,302.5 146.5,276.5C 146.346,249.44 146.846,222.44 148,195.5C 148.903,194.299 150.069,193.465 151.5,193C 181.498,192.5 211.498,192.333 241.5,192.5 Z"/></g>
<g><path style="opacity:1" fill="#fcfcfc" d="M 356.5,192.5 C 358.167,193.167 359.833,193.833 361.5,194.5C 362.491,248.125 362.825,301.791 362.5,355.5C 361.327,357.504 359.66,359.004 357.5,360C 327.167,360.667 296.833,360.667 266.5,360C 263.944,358.945 262.277,357.112 261.5,354.5C 261.009,301.416 261.509,248.416 263,195.5C 263.833,194.667 264.667,193.833 265.5,193C 295.832,192.5 326.165,192.333 356.5,192.5 Z"/></g>
<g><path style="opacity:1" fill="#fbfbfb" d="M 382.5,192.5 C 412.502,192.333 442.502,192.5 472.5,193C 473.931,193.465 475.097,194.299 476,195.5C 477.658,248.417 477.991,301.417 477,354.5C 476.5,357.667 474.667,359.5 471.5,360C 441.5,360.667 411.5,360.667 381.5,360C 378.944,358.945 377.277,357.112 376.5,354.5C 376.333,302.166 376.5,249.832 377,197.5C 378.076,194.921 379.909,193.254 382.5,192.5 Z"/></g>
<g><path style="opacity:1" fill="#fcfcfc" d="M 586.5,192.5 C 588.772,193.441 590.772,194.774 592.5,196.5C 592.667,249.501 592.5,302.501 592,355.5C 591.065,358.102 589.232,359.602 586.5,360C 556.5,360.667 526.5,360.667 496.5,360C 495.069,359.535 493.903,358.701 493,357.5C 491.509,304.584 491.009,251.584 491.5,198.5C 492.203,196.284 493.536,194.451 495.5,193C 525.832,192.5 556.165,192.333 586.5,192.5 Z"/></g>
<g><path style="opacity:1" fill="#bbc0c2" d="M 361.5,194.5 C 362.458,194.953 363.292,195.619 364,196.5C 364.832,249.668 364.665,302.668 363.5,355.5C 363.167,355.5 362.833,355.5 362.5,355.5C 362.825,301.791 362.491,248.125 361.5,194.5 Z"/></g>
<g><path style="opacity:1" fill="#878b8c" d="M 241.5,192.5 C 211.498,192.333 181.498,192.5 151.5,193C 150.069,193.465 148.903,194.299 148,195.5C 146.846,222.44 146.346,249.44 146.5,276.5C 146.667,302.5 146.833,328.5 147,354.5C 147.791,355.745 148.291,357.078 148.5,358.5C 147.21,357.942 146.377,356.942 146,355.5C 145.013,301.775 145.346,248.108 147,194.5C 147.903,193.299 149.069,192.465 150.5,192C 181.003,191.169 211.336,191.336 241.5,192.5 Z"/></g>
<g><path style="opacity:1" fill="#aaadad" d="M 267.5,191.5 C 297.338,191.169 327.005,191.502 356.5,192.5C 326.165,192.333 295.832,192.5 265.5,193C 264.667,193.833 263.833,194.667 263,195.5C 261.509,248.416 261.009,301.416 261.5,354.5C 261.167,354.5 260.833,354.5 260.5,354.5C 260.333,301.832 260.5,249.166 261,196.5C 262.191,193.466 264.358,191.799 267.5,191.5 Z"/></g>
<g><path style="opacity:1" fill="#a3a3a3" d="M 153.5,198.5 C 156.978,198.184 160.312,198.684 163.5,200C 165.706,202.209 166.04,204.709 164.5,207.5C 163.349,208.731 162.183,208.731 161,207.5C 160.883,206.05 161.05,204.55 161.5,203C 159.5,198.333 157.5,198.333 155.5,203C 155.95,204.55 156.117,206.05 156,207.5C 152.697,208.695 151.197,207.362 151.5,203.5C 151.437,201.486 152.103,199.819 153.5,198.5 Z"/></g>
<g><path style="opacity:1" fill="#a4a4a4" d="M 269.5,198.5 C 273.219,198.002 276.553,198.836 279.5,201C 281.172,204.143 280.506,206.643 277.5,208.5C 273.833,207.5 273.5,205.833 276.5,203.5C 274.759,198.447 272.759,198.28 270.5,203C 270.95,204.55 271.117,206.05 271,207.5C 267.697,208.695 266.197,207.362 266.5,203.5C 266.771,201.307 267.771,199.641 269.5,198.5 Z"/></g>
<g><path style="opacity:1" fill="#a5a5a5" d="M 383.5,198.5 C 388.266,197.551 392.1,198.884 395,202.5C 395.987,206.506 394.487,208.339 390.5,208C 390.273,205.631 390.107,203.131 390,200.5C 388.667,199.167 387.333,199.167 386,200.5C 385.313,202.568 385.48,204.568 386.5,206.5C 383.137,209.193 381.471,208.193 381.5,203.5C 381.437,201.486 382.103,199.819 383.5,198.5 Z"/></g>
<g><path style="opacity:1" fill="#88a5c8" d="M 183.5,199.5 C 184.598,200.397 184.598,201.23 183.5,202C 188.155,202.499 192.821,202.666 197.5,202.5C 190.182,203.352 182.849,203.685 175.5,203.5C 175.5,201.833 175.5,200.167 175.5,198.5C 178.206,198.575 180.873,198.908 183.5,199.5 Z"/></g>
<g><path style="opacity:1" fill="#5885b5" d="M 183.5,199.5 C 185.017,199.511 186.184,200.177 187,201.5C 188.154,199.043 189.488,199.043 191,201.5C 191.308,200.692 191.808,200.025 192.5,199.5C 194.003,200.052 195.669,200.052 197.5,199.5C 197.5,200.5 197.5,201.5 197.5,202.5C 192.821,202.666 188.155,202.499 183.5,202C 184.598,201.23 184.598,200.397 183.5,199.5 Z"/></g>
<g><path style="opacity:1" fill="#648dba" d="M 304.5,199.5 C 304.5,200.5 304.5,201.5 304.5,202.5C 300.298,202.183 296.298,202.517 292.5,203.5C 290.744,202.448 290.077,200.781 290.5,198.5C 293.695,197.961 296.195,198.961 298,201.5C 299.154,199.043 300.488,199.043 302,201.5C 302.417,200.244 303.25,199.577 304.5,199.5 Z"/></g>
<g><path style="opacity:1" fill="#648bb8" d="M 306.5,199.5 C 308.389,200.38 310.389,200.38 312.5,199.5C 312.5,200.5 312.5,201.5 312.5,202.5C 310.143,202.663 307.81,202.497 305.5,202C 306.252,201.329 306.586,200.496 306.5,199.5 Z"/></g>
<g><path style="opacity:1" fill="#6d93be" d="M 419.5,199.5 C 419.5,200.5 419.5,201.5 419.5,202.5C 415.298,202.183 411.298,202.517 407.5,203.5C 405.744,202.448 405.077,200.781 405.5,198.5C 408.695,197.961 411.195,198.961 413,201.5C 414.754,199.75 416.921,199.083 419.5,199.5 Z"/></g>
<g><path style="opacity:1" fill="#6e94be" d="M 421.5,199.5 C 423.389,200.38 425.389,200.38 427.5,199.5C 427.5,200.5 427.5,201.5 427.5,202.5C 425.143,202.663 422.81,202.497 420.5,202C 421.252,201.329 421.586,200.496 421.5,199.5 Z"/></g>
<g><path style="opacity:1" fill="#a2a9ab" d="M 586.5,192.5 C 556.165,192.333 525.832,192.5 495.5,193C 493.536,194.451 492.203,196.284 491.5,198.5C 490.501,250.331 490.168,302.331 490.5,354.5C 489.833,328.502 489.5,302.335 489.5,276C 489.341,249.082 489.841,222.249 491,195.5C 492.167,194.333 493.333,193.167 494.5,192C 525.336,191.169 556.003,191.336 586.5,192.5 Z"/></g>
<g><path style="opacity:1" fill="#a8c0d9" d="M 304.5,199.5 C 305.167,199.5 305.833,199.5 306.5,199.5C 306.586,200.496 306.252,201.329 305.5,202C 307.81,202.497 310.143,202.663 312.5,202.5C 306.021,203.491 299.354,203.824 292.5,203.5C 296.298,202.517 300.298,202.183 304.5,202.5C 304.5,201.5 304.5,200.5 304.5,199.5 Z"/></g>
<g><path style="opacity:1" fill="#afc4da" d="M 419.5,199.5 C 420.167,199.5 420.833,199.5 421.5,199.5C 421.586,200.496 421.252,201.329 420.5,202C 422.81,202.497 425.143,202.663 427.5,202.5C 421.021,203.491 414.354,203.824 407.5,203.5C 411.298,202.517 415.298,202.183 419.5,202.5C 419.5,201.5 419.5,200.5 419.5,199.5 Z"/></g>
<g><path style="opacity:1" fill="#babfc0" d="M 382.5,191.5 C 382.5,191.833 382.5,192.167 382.5,192.5C 379.909,193.254 378.076,194.921 377,197.5C 376.5,249.832 376.333,302.166 376.5,354.5C 376.167,354.5 375.833,354.5 375.5,354.5C 375.333,301.832 375.5,249.166 376,196.5C 377.191,193.466 379.358,191.799 382.5,191.5 Z"/></g>
<g><path style="opacity:1" fill="#9ab7d5" d="M 176.5,209.5 C 178.167,209.5 179.833,209.5 181.5,209.5C 181.783,214.608 179.95,215.608 176,212.5C 175.53,211.423 175.697,210.423 176.5,209.5 Z"/></g>
<g><path style="opacity:1" fill="#6089b8" d="M 183.5,210.5 C 186.609,210.655 189.609,211.322 192.5,212.5C 191.372,213.262 190.205,213.929 189,214.5C 187.301,213.594 185.467,213.261 183.5,213.5C 183.5,212.5 183.5,211.5 183.5,210.5 Z"/></g>
<g><path style="opacity:1" fill="#9eb4d1" d="M 213.5,210.5 C 216.833,210.5 220.167,210.5 223.5,210.5C 222.5,211.833 221.5,213.167 220.5,214.5C 218.167,214.5 215.833,214.5 213.5,214.5C 213.5,213.167 213.5,211.833 213.5,210.5 Z"/></g>
<g><path style="opacity:1" fill="#6b90c0" d="M 290.5,210.5 C 292.225,210.843 292.725,211.843 292,213.5C 290.961,212.756 290.461,211.756 290.5,210.5 Z"/></g>
<g><path style="opacity:1" fill="#6c94be" d="M 310.5,210.5 C 314.5,210.5 318.5,210.5 322.5,210.5C 322.5,211.5 322.5,212.5 322.5,213.5C 321.717,212.54 320.55,211.873 319,211.5C 316.046,211.594 315.879,212.094 318.5,213C 316.005,213.157 313.672,213.324 311.5,213.5C 311.483,212.606 311.149,211.606 310.5,210.5 Z"/></g>
<g><path style="opacity:1" fill="#658fb9" d="M 413.5,210.5 C 425.39,212.121 425.39,213.121 413.5,213.5C 413.5,212.5 413.5,211.5 413.5,210.5 Z"/></g>
<g><path style="opacity:1" fill="#85a5c9" d="M 424.5,210.5 C 428.833,210.5 433.167,210.5 437.5,210.5C 437.56,214.327 436.393,214.994 434,212.5C 433.692,213.308 433.192,213.975 432.5,214.5C 429.916,213.915 427.249,213.915 424.5,214.5C 424.5,213.167 424.5,211.833 424.5,210.5 Z"/></g>
<g><path style="opacity:1" fill="#92afce" d="M 195.5,211.5 C 199.298,210.517 203.298,210.183 207.5,210.5C 207.762,211.978 207.429,213.311 206.5,214.5C 202.958,214.638 199.292,214.305 195.5,213.5C 196.55,212.571 196.55,211.905 195.5,211.5 Z"/></g>
<g><path style="opacity:1" fill="#7ea2c8" d="M 293.5,209.5 C 294.5,209.5 295.5,209.5 296.5,209.5C 296.884,211.665 296.217,213.332 294.5,214.5C 293.548,212.955 293.215,211.288 293.5,209.5 Z"/></g>
<g><path style="opacity:1" fill="#6d95c0" d="M 298.5,210.5 C 301.473,211.084 304.473,211.751 307.5,212.5C 306.372,213.262 305.205,213.929 304,214.5C 302.301,213.594 300.467,213.261 298.5,213.5C 298.5,212.5 298.5,211.5 298.5,210.5 Z"/></g>
<g><path style="opacity:1" fill="#6894c0" d="M 408.5,210.5 C 411.388,211.54 411.721,212.873 409.5,214.5C 408.571,213.311 408.238,211.978 408.5,210.5 Z"/></g>
<g><path style="opacity:1" fill="#8dadce" d="M 209.5,211.5 C 210.209,210.596 211.209,210.263 212.5,210.5C 212.5,211.833 212.5,213.167 212.5,214.5C 211.325,214.719 210.325,214.386 209.5,213.5C 210.55,212.571 210.55,211.905 209.5,211.5 Z"/></g>
<g><path style="opacity:1" fill="#bacadc" d="M 310.5,210.5 C 311.149,211.606 311.483,212.606 311.5,213.5C 313.672,213.324 316.005,213.157 318.5,213C 315.879,212.094 316.046,211.594 319,211.5C 320.55,211.873 321.717,212.54 322.5,213.5C 318.366,214.485 314.032,214.818 309.5,214.5C 309.232,212.901 309.566,211.568 310.5,210.5 Z"/></g>
<g><path style="opacity:1" fill="#90b0d0" d="M 324.5,211.5 C 325.209,210.596 326.209,210.263 327.5,210.5C 327.5,211.833 327.5,213.167 327.5,214.5C 326.325,214.719 325.325,214.386 324.5,213.5C 325.55,212.571 325.55,211.905 324.5,211.5 Z"/></g>
<g><path style="opacity:1" fill="#94b3d1" d="M 328.5,210.5 C 332.167,210.5 335.833,210.5 339.5,210.5C 339.427,213.95 337.594,215.283 334,214.5C 330.406,215.283 328.573,213.95 328.5,210.5 Z"/></g>
<g><path style="opacity:1" fill="#a1b8d4" d="M 439.5,209.5 C 443.484,209.469 447.317,210.136 451,211.5C 452.813,210.391 453.646,211.058 453.5,213.5C 450.658,214.197 447.992,214.531 445.5,214.5C 444.353,214.182 443.519,213.516 443,212.5C 442.174,214.405 441.007,214.739 439.5,213.5C 440.363,212.274 440.363,210.94 439.5,209.5 Z"/></g>
<g><path style="opacity:1" fill="#79bed8" d="M 166.5,220.5 C 182.167,220.5 197.833,220.5 213.5,220.5C 214.805,226.362 212.472,228.862 206.5,228C 194.85,229.602 183.184,229.769 171.5,228.5C 171.058,227.261 170.391,226.261 169.5,225.5C 168.263,224.035 167.263,222.368 166.5,220.5 Z"/></g>
<g><path style="opacity:1" fill="#c99558" d="M 413.5,220.5 C 420.167,220.5 426.833,220.5 433.5,220.5C 433.912,222.973 432.912,224.306 430.5,224.5C 428.118,223.454 425.785,223.454 423.5,224.5C 421.833,224.5 420.167,224.5 418.5,224.5C 416.289,223.889 414.622,222.556 413.5,220.5 Z"/></g>
<g><path style="opacity:1" fill="#ded6cd" d="M 384.5,220.5 C 400.995,219.338 417.662,219.172 434.5,220C 443.318,220.947 452.151,222.114 461,223.5C 464.786,222.205 468.62,222.205 472.5,223.5C 468.878,224.325 465.211,224.825 461.5,225C 462.37,229.298 465.37,231.465 470.5,231.5C 465.658,237.919 460.658,237.753 455.5,231C 456.57,229.291 457.903,227.791 459.5,226.5C 454.414,225.089 452.58,227.089 454,232.5C 456.903,234.546 458.736,237.213 459.5,240.5C 458.833,241.5 458.167,242.5 457.5,243.5C 457.339,237.849 454.672,233.849 449.5,231.5C 449.5,230.833 449.167,230.5 448.5,230.5C 446.328,229.199 443.995,228.199 441.5,227.5C 440.5,227.5 439.5,227.5 438.5,227.5C 437.432,226.566 436.099,226.232 434.5,226.5C 433.295,225.314 431.961,225.314 430.5,226.5C 430.5,225.833 430.5,225.167 430.5,224.5C 432.912,224.306 433.912,222.973 433.5,220.5C 426.833,220.5 420.167,220.5 413.5,220.5C 403.833,220.5 394.167,220.5 384.5,220.5 Z"/></g>
<g><path style="opacity:1" fill="#bdb8b2" d="M 418.5,224.5 C 420.167,224.5 421.833,224.5 423.5,224.5C 423.218,225.778 422.551,226.778 421.5,227.5C 420.07,227.421 418.736,227.754 417.5,228.5C 416.081,227.995 415.415,226.995 415.5,225.5C 416.209,224.596 417.209,224.263 418.5,224.5 Z"/></g>
<g><path style="opacity:1" fill="#a7702c" d="M 384.5,220.5 C 394.167,220.5 403.833,220.5 413.5,220.5C 414.622,222.556 416.289,223.889 418.5,224.5C 417.209,224.263 416.209,224.596 415.5,225.5C 414.209,225.263 413.209,225.596 412.5,226.5C 407.528,227.153 403.195,229.153 399.5,232.5C 395.689,231.08 391.689,230.08 387.5,229.5C 386.328,229.919 385.328,230.585 384.5,231.5C 383.833,230.5 383.167,229.5 382.5,228.5C 381.269,229.651 381.269,230.817 382.5,232C 381.906,232.464 381.239,232.631 380.5,232.5C 380.335,229.482 380.502,226.482 381,223.5C 382.039,222.29 383.206,221.29 384.5,220.5 Z"/></g>
<g><path style="opacity:1" fill="#272a2f" d="M 434.5,226.5 C 434.662,228.824 435.828,230.491 438,231.5C 438.507,230.004 438.007,228.837 436.5,228C 437.094,227.536 437.761,227.369 438.5,227.5C 439.914,229.811 441.747,231.811 444,233.5C 444.483,234.448 444.649,235.448 444.5,236.5C 442.54,235.862 440.707,235.862 439,236.5C 436.904,235.285 437.071,234.451 439.5,234C 438.095,232.731 436.429,232.231 434.5,232.5C 434.134,231.305 433.301,230.639 432,230.5C 429.608,230.391 427.108,230.558 424.5,231C 425.701,230.097 426.535,228.931 427,227.5C 427.414,227.957 427.914,228.291 428.5,228.5C 429.182,227.757 429.849,227.091 430.5,226.5C 431.961,225.314 433.295,225.314 434.5,226.5 Z"/></g>
<g><path style="opacity:1" fill="#808487" d="M 434.5,226.5 C 436.099,226.232 437.432,226.566 438.5,227.5C 437.761,227.369 437.094,227.536 436.5,228C 438.007,228.837 438.507,230.004 438,231.5C 435.828,230.491 434.662,228.824 434.5,226.5 Z"/></g>
<g><path style="opacity:1" fill="#5fa8bf" d="M 213.5,220.5 C 215.167,220.5 216.833,220.5 218.5,220.5C 218.575,224.897 218.075,229.23 217,233.5C 215.482,234.163 214.315,235.163 213.5,236.5C 209.557,237.486 205.557,238.152 201.5,238.5C 202.434,236.761 202.434,235.095 201.5,233.5C 200.41,234.727 199.076,235.56 197.5,236C 197.833,236.333 198.167,236.667 198.5,237C 196.251,237.863 194.418,237.363 193,235.5C 189.911,238.043 186.744,238.043 183.5,235.5C 182.614,234.675 182.281,233.675 182.5,232.5C 181.022,232.238 179.689,232.571 178.5,233.5C 179.894,234.687 179.727,235.354 178,235.5C 174.939,234.073 172.273,232.073 170,229.5C 169.51,228.207 169.343,226.873 169.5,225.5C 170.391,226.261 171.058,227.261 171.5,228.5C 183.184,229.769 194.85,229.602 206.5,228C 212.472,228.862 214.805,226.362 213.5,220.5 Z"/></g>
<g><path style="opacity:1" fill="#595b5f" d="M 430.5,224.5 C 430.5,225.167 430.5,225.833 430.5,226.5C 429.849,227.091 429.182,227.757 428.5,228.5C 427.914,228.291 427.414,227.957 427,227.5C 426.535,228.931 425.701,230.097 424.5,231C 427.108,230.558 429.608,230.391 432,230.5C 433.301,230.639 434.134,231.305 434.5,232.5C 430.777,232.719 427.277,233.052 424,233.5C 419.852,231.936 419.686,230.27 423.5,228.5C 423.043,227.702 422.376,227.369 421.5,227.5C 422.551,226.778 423.218,225.778 423.5,224.5C 425.785,223.454 428.118,223.454 430.5,224.5 Z"/></g>
<g><path style="opacity:1" fill="#9a6f3d" d="M 399.5,232.5 C 398.058,233.82 397.392,235.486 397.5,237.5C 397.167,237.5 396.833,237.5 396.5,237.5C 391.138,237.528 385.805,237.194 380.5,236.5C 380.5,235.167 380.5,233.833 380.5,232.5C 381.239,232.631 381.906,232.464 382.5,232C 381.269,230.817 381.269,229.651 382.5,228.5C 383.167,229.5 383.833,230.5 384.5,231.5C 385.328,230.585 386.328,229.919 387.5,229.5C 391.689,230.08 395.689,231.08 399.5,232.5 Z"/></g>
<g><path style="opacity:1" fill="#4b92a9" d="M 164.5,220.5 C 165.167,220.5 165.833,220.5 166.5,220.5C 167.263,222.368 168.263,224.035 169.5,225.5C 169.343,226.873 169.51,228.207 170,229.5C 172.273,232.073 174.939,234.073 178,235.5C 179.727,235.354 179.894,234.687 178.5,233.5C 179.689,232.571 181.022,232.238 182.5,232.5C 182.281,233.675 182.614,234.675 183.5,235.5C 186.744,238.043 189.911,238.043 193,235.5C 194.418,237.363 196.251,237.863 198.5,237C 198.167,236.667 197.833,236.333 197.5,236C 199.076,235.56 200.41,234.727 201.5,233.5C 202.434,235.095 202.434,236.761 201.5,238.5C 201.5,239.167 201.5,239.833 201.5,240.5C 196.069,239.519 190.402,239.519 184.5,240.5C 184.058,241.739 183.391,242.739 182.5,243.5C 181.596,242.791 181.263,241.791 181.5,240.5C 175.508,241.135 170.675,239.135 167,234.5C 166.118,229.821 165.285,225.154 164.5,220.5 Z"/></g>
<g><path style="opacity:1" fill="#5f6469" d="M 448.5,230.5 C 449.167,230.5 449.5,230.833 449.5,231.5C 449.771,233.43 450.771,234.764 452.5,235.5C 451.355,236.793 451.689,237.959 453.5,239C 448.668,238.083 447.002,235.25 448.5,230.5 Z"/></g>
<g><path style="opacity:1" fill="#287ea3" d="M 231.5,220.5 C 233.167,220.5 234.833,220.5 236.5,220.5C 236.666,226.509 236.499,232.509 236,238.5C 234.694,241.621 232.86,244.287 230.5,246.5C 227.786,246.75 225.119,246.917 222.5,247C 223.833,246.333 225.167,245.667 226.5,245C 224.619,245.096 222.953,244.929 221.5,244.5C 226.111,243.056 229.278,240.056 231,235.5C 231.499,230.511 231.666,225.511 231.5,220.5 Z"/></g>
<g><path style="opacity:1" fill="#c0b09f" d="M 470.5,231.5 C 471.496,231.414 472.329,231.748 473,232.5C 473.494,234.134 473.66,235.801 473.5,237.5C 471.814,239.016 469.981,240.35 468,241.5C 465.444,238.929 462.944,238.929 460.5,241.5C 459.893,241.376 459.56,241.043 459.5,240.5C 458.736,237.213 456.903,234.546 454,232.5C 452.58,227.089 454.414,225.089 459.5,226.5C 457.903,227.791 456.57,229.291 455.5,231C 460.658,237.753 465.658,237.919 470.5,231.5 Z"/></g>
<g><path style="opacity:1" fill="#736550" d="M 380.5,237.5 C 380.5,237.167 380.5,236.833 380.5,236.5C 385.805,237.194 391.138,237.528 396.5,237.5C 395.306,238.777 393.64,239.444 391.5,239.5C 387.744,239.246 384.077,238.579 380.5,237.5 Z"/></g>
<g><path style="opacity:1" fill="#f3da16" d="M 285.5,220.5 C 288.167,220.5 290.833,220.5 293.5,220.5C 293.161,225.93 293.661,231.264 295,236.5C 296.432,238.439 298.265,239.772 300.5,240.5C 307.647,242.928 314.981,243.094 322.5,241C 326.097,237.682 329.597,234.182 333,230.5C 333.498,227.183 333.665,223.85 333.5,220.5C 335.5,220.5 337.5,220.5 339.5,220.5C 338.609,221.261 337.942,222.261 337.5,223.5C 339.817,232.034 340.65,240.701 340,249.5C 338.27,253.299 337.104,257.299 336.5,261.5C 333.696,262.638 330.696,262.805 327.5,262C 325.733,253.796 322.066,252.63 316.5,258.5C 314.016,257.277 311.683,255.777 309.5,254C 305.259,252.543 300.926,252.209 296.5,253C 294.416,253.697 292.749,254.864 291.5,256.5C 290.833,256.5 290.5,256.833 290.5,257.5C 288.386,256.64 287.22,254.973 287,252.5C 286.5,248.5 286,244.5 285.5,240.5C 287.034,236.191 288.034,231.691 288.5,227C 288.436,224.282 287.436,222.115 285.5,220.5 Z"/></g>
<g><path style="opacity:1" fill="#eda927" d="M 315.5,232.5 C 316.5,232.5 317.5,232.5 318.5,232.5C 321.167,232.5 323.833,232.5 326.5,232.5C 323.869,238.492 319.203,241.492 312.5,241.5C 309.845,241.56 307.511,240.893 305.5,239.5C 308.008,237.763 311.008,236.93 314.5,237C 317.419,235.457 317.752,233.957 315.5,232.5 Z"/></g>
<g><path style="opacity:1" fill="#f8d332" d="M 300.5,232.5 C 305.5,232.5 310.5,232.5 315.5,232.5C 317.752,233.957 317.419,235.457 314.5,237C 311.008,236.93 308.008,237.763 305.5,239.5C 305.167,239.5 304.833,239.5 304.5,239.5C 301.235,237.952 299.902,235.618 300.5,232.5 Z"/></g>
<g><path style="opacity:1" fill="#e0cb98" d="M 293.5,220.5 C 293.833,220.5 294.167,220.5 294.5,220.5C 294.117,225.343 294.783,230.009 296.5,234.5C 297.522,234.145 298.189,233.478 298.5,232.5C 299.167,232.5 299.833,232.5 300.5,232.5C 299.902,235.618 301.235,237.952 304.5,239.5C 303.432,240.434 302.099,240.768 300.5,240.5C 298.265,239.772 296.432,238.439 295,236.5C 293.661,231.264 293.161,225.93 293.5,220.5 Z"/></g>
<g><path style="opacity:1" fill="#d3c195" d="M 311.5,230.5 C 311.833,230.5 312.167,230.5 312.5,230.5C 314.265,231.461 316.265,231.795 318.5,231.5C 318.5,231.833 318.5,232.167 318.5,232.5C 317.5,232.5 316.5,232.5 315.5,232.5C 310.5,232.5 305.5,232.5 300.5,232.5C 304.167,231.833 307.833,231.167 311.5,230.5 Z"/></g>
<g><path style="opacity:1" fill="#b05b55" d="M 321.5,224.5 C 322.183,226.176 323.517,226.843 325.5,226.5C 324.391,227.29 323.058,227.79 321.5,228C 323.134,228.494 324.801,228.66 326.5,228.5C 325.909,229.151 325.243,229.818 324.5,230.5C 326.045,231.452 327.712,231.785 329.5,231.5C 328.791,232.404 327.791,232.737 326.5,232.5C 323.833,232.5 321.167,232.5 318.5,232.5C 318.5,232.167 318.5,231.833 318.5,231.5C 320.02,229.412 321.02,227.078 321.5,224.5 Z"/></g>
<g><path style="opacity:1" fill="#eadbd8" d="M 304.5,220.5 C 305.5,220.5 306.5,220.5 307.5,220.5C 306.489,222.402 306.322,224.402 307,226.5C 308.319,224.75 308.819,222.75 308.5,220.5C 309.5,220.5 310.5,220.5 311.5,220.5C 311.706,228.301 312.372,228.301 313.5,220.5C 314.268,221.263 314.768,222.263 315,223.5C 315.383,222.944 315.883,222.611 316.5,222.5C 316.351,223.552 316.517,224.552 317,225.5C 318.269,224.095 318.769,222.429 318.5,220.5C 320.167,220.5 321.833,220.5 323.5,220.5C 323.5,221.5 323.5,222.5 323.5,223.5C 322.033,220.742 321.367,221.075 321.5,224.5C 321.02,227.078 320.02,229.412 318.5,231.5C 316.265,231.795 314.265,231.461 312.5,230.5C 314.429,230.769 316.095,230.269 317.5,229C 313.179,228.501 308.846,228.334 304.5,228.5C 303.833,228.5 303.5,228.167 303.5,227.5C 303.298,225.05 303.631,222.717 304.5,220.5 Z"/></g>
<g><path style="opacity:1" fill="#74242a" d="M 294.5,220.5 C 295.833,220.5 297.167,220.5 298.5,220.5C 298.156,224.053 297.489,227.553 296.5,231C 296.836,232.03 297.503,232.53 298.5,232.5C 298.189,233.478 297.522,234.145 296.5,234.5C 294.783,230.009 294.117,225.343 294.5,220.5 Z"/></g>
<g><path style="opacity:1" fill="#b56968" d="M 301.5,225.5 C 301.5,226.833 301.5,228.167 301.5,229.5C 302.791,229.737 303.791,229.404 304.5,228.5C 308.846,228.334 313.179,228.501 317.5,229C 316.095,230.269 314.429,230.769 312.5,230.5C 312.167,230.5 311.833,230.5 311.5,230.5C 307.833,230.5 304.167,230.5 300.5,230.5C 300.216,228.585 300.549,226.919 301.5,225.5 Z"/></g>
<g><path style="opacity:1" fill="#8f2a2f" d="M 301.5,224.5 C 302.167,225.5 302.833,226.5 303.5,227.5C 303.5,228.167 303.833,228.5 304.5,228.5C 303.791,229.404 302.791,229.737 301.5,229.5C 301.5,228.167 301.5,226.833 301.5,225.5C 301.5,225.167 301.5,224.833 301.5,224.5 Z"/></g>
<g><path style="opacity:1" fill="#9e2a30" d="M 323.5,223.5 C 324.167,224.5 324.833,225.5 325.5,226.5C 323.517,226.843 322.183,226.176 321.5,224.5C 321.367,221.075 322.033,220.742 323.5,223.5 Z"/></g>
<g><path style="opacity:1" fill="#933033" d="M 318.5,220.5 C 318.769,222.429 318.269,224.095 317,225.5C 316.517,224.552 316.351,223.552 316.5,222.5C 316.5,221.167 317.167,220.5 318.5,220.5 Z"/></g>
<g><path style="opacity:1" fill="#a55552" d="M 311.5,220.5 C 312.167,220.5 312.833,220.5 313.5,220.5C 312.372,228.301 311.706,228.301 311.5,220.5 Z"/></g>
<g><path style="opacity:1" fill="#952e31" d="M 307.5,220.5 C 307.833,220.5 308.167,220.5 308.5,220.5C 308.819,222.75 308.319,224.75 307,226.5C 306.322,224.402 306.489,222.402 307.5,220.5 Z"/></g>
<g><path style="opacity:1" fill="#b07779" d="M 304.5,220.5 C 303.631,222.717 303.298,225.05 303.5,227.5C 302.833,226.5 302.167,225.5 301.5,224.5C 301.5,223.167 301.5,221.833 301.5,220.5C 302.5,220.5 303.5,220.5 304.5,220.5 Z"/></g>
<g><path style="opacity:1" fill="#933030" d="M 332.5,220.5 C 332.665,223.518 332.498,226.518 332,229.5C 331.292,230.381 330.458,231.047 329.5,231.5C 327.712,231.785 326.045,231.452 324.5,230.5C 325.243,229.818 325.909,229.151 326.5,228.5C 327.695,228.134 328.361,227.301 328.5,226C 327.711,224.374 326.711,222.874 325.5,221.5C 327.743,220.526 330.076,220.192 332.5,220.5 Z"/></g>
<g><path style="opacity:1" fill="#555a60" d="M 438.5,227.5 C 439.5,227.5 440.5,227.5 441.5,227.5C 442.727,229.581 444.227,231.581 446,233.5C 447.113,237.51 447.78,241.51 448,245.5C 447.121,243.021 445.621,241.021 443.5,239.5C 444.025,238.808 444.692,238.308 445.5,238C 445,237.833 444.5,237.667 444,237.5C 442.829,238.34 441.662,239.173 440.5,240C 443.188,240.782 444.188,242.282 443.5,244.5C 442.476,243.147 441.143,242.48 439.5,242.5C 439.803,239.412 438.47,237.746 435.5,237.5C 435.634,235.708 435.301,234.042 434.5,232.5C 436.429,232.231 438.095,232.731 439.5,234C 437.071,234.451 436.904,235.285 439,236.5C 440.707,235.862 442.54,235.862 444.5,236.5C 444.649,235.448 444.483,234.448 444,233.5C 441.747,231.811 439.914,229.811 438.5,227.5 Z"/></g>
<g><path style="opacity:1" fill="#a19b8e" d="M 380.5,237.5 C 384.077,238.579 387.744,239.246 391.5,239.5C 393.64,239.444 395.306,238.777 396.5,237.5C 396.833,237.5 397.167,237.5 397.5,237.5C 397.799,239.604 397.466,241.604 396.5,243.5C 395.614,242.675 395.281,241.675 395.5,240.5C 390.672,242.151 385.672,242.817 380.5,242.5C 380.5,240.833 380.5,239.167 380.5,237.5 Z"/></g>
<g><path style="opacity:1" fill="#939797" d="M 449.5,231.5 C 454.672,233.849 457.339,237.849 457.5,243.5C 457.5,244.167 457.167,244.5 456.5,244.5C 455.925,241.088 454.592,238.088 452.5,235.5C 450.771,234.764 449.771,233.43 449.5,231.5 Z"/></g>
<g><path style="opacity:1" fill="#e2e8ea" d="M 164.5,220.5 C 183.693,219.198 203.027,219.198 222.5,220.5C 221.833,227.495 221.667,234.495 222,241.5C 223.444,239.845 225.278,239.178 227.5,239.5C 229.662,233.383 230.996,227.05 231.5,220.5C 231.666,225.511 231.499,230.511 231,235.5C 229.278,240.056 226.111,243.056 221.5,244.5C 220.226,245.189 220.226,246.023 221.5,247C 219.726,247.97 217.893,248.804 216,249.5C 214.323,248.392 212.823,248.392 211.5,249.5C 211.135,247.412 211.135,245.079 211.5,242.5C 213.288,242.785 214.955,242.452 216.5,241.5C 216.245,239.657 216.078,237.657 216,235.5C 215.329,236.252 214.496,236.586 213.5,236.5C 214.315,235.163 215.482,234.163 217,233.5C 218.075,229.23 218.575,224.897 218.5,220.5C 216.833,220.5 215.167,220.5 213.5,220.5C 197.833,220.5 182.167,220.5 166.5,220.5C 165.833,220.5 165.167,220.5 164.5,220.5 Z"/></g>
<g><path style="opacity:1" fill="#77bad1" d="M 201.5,240.5 C 201.759,243.48 200.426,245.313 197.5,246C 193.167,246.667 188.833,246.667 184.5,246C 183.619,245.292 182.953,244.458 182.5,243.5C 183.391,242.739 184.058,241.739 184.5,240.5C 190.402,239.519 196.069,239.519 201.5,240.5 Z"/></g>
<g><path style="opacity:1" fill="#f7eaa7" d="M 332.5,220.5 C 332.833,220.5 333.167,220.5 333.5,220.5C 333.665,223.85 333.498,227.183 333,230.5C 329.597,234.182 326.097,237.682 322.5,241C 314.981,243.094 307.647,242.928 300.5,240.5C 302.099,240.768 303.432,240.434 304.5,239.5C 304.833,239.5 305.167,239.5 305.5,239.5C 307.511,240.893 309.845,241.56 312.5,241.5C 319.203,241.492 323.869,238.492 326.5,232.5C 327.791,232.737 328.791,232.404 329.5,231.5C 330.458,231.047 331.292,230.381 332,229.5C 332.498,226.518 332.665,223.518 332.5,220.5 Z"/></g>
<g><path style="opacity:1" fill="#e8e7e5" d="M 473.5,237.5 C 473.5,241.833 473.5,246.167 473.5,250.5C 471.21,252.339 468.877,252.672 466.5,251.5C 466.672,250.508 466.338,249.842 465.5,249.5C 463.735,248.539 461.735,248.205 459.5,248.5C 458.947,250.939 458.947,253.273 459.5,255.5C 457.757,257.038 455.757,258.038 453.5,258.5C 456.115,254.991 457.115,250.991 456.5,246.5C 456.5,245.833 456.5,245.167 456.5,244.5C 457.167,244.5 457.5,244.167 457.5,243.5C 458.167,242.5 458.833,241.5 459.5,240.5C 459.56,241.043 459.893,241.376 460.5,241.5C 462.944,238.929 465.444,238.929 468,241.5C 469.981,240.35 471.814,239.016 473.5,237.5 Z"/></g>
<g><path style="opacity:1" fill="#2a2d32" d="M 415.5,225.5 C 415.415,226.995 416.081,227.995 417.5,228.5C 418.736,227.754 420.07,227.421 421.5,227.5C 422.376,227.369 423.043,227.702 423.5,228.5C 419.686,230.27 419.852,231.936 424,233.5C 427.277,233.052 430.777,232.719 434.5,232.5C 435.301,234.042 435.634,235.708 435.5,237.5C 438.47,237.746 439.803,239.412 439.5,242.5C 437.354,242.696 437.188,243.696 439,245.5C 440.32,245.799 441.82,245.966 443.5,246C 443.957,246.414 444.291,246.914 444.5,247.5C 441.968,248.119 439.635,249.119 437.5,250.5C 436.019,249.52 434.685,248.353 433.5,247C 426.935,246.877 426.268,245.377 431.5,242.5C 433.197,243.364 434.363,244.697 435,246.5C 435.667,244.5 435.667,242.5 435,240.5C 433.989,241.337 432.822,241.67 431.5,241.5C 431.5,240.5 431.5,239.5 431.5,238.5C 428.975,239.64 426.308,240.307 423.5,240.5C 423.5,239.5 423.5,238.5 423.5,237.5C 420.68,237.248 418.014,237.748 415.5,239C 415.957,239.414 416.291,239.914 416.5,240.5C 415.167,241.167 413.833,241.833 412.5,242.5C 413.098,243.795 413.598,245.128 414,246.5C 414.29,244.956 414.956,243.623 416,242.5C 419.129,243.13 422.296,243.796 425.5,244.5C 423.49,246.171 421.157,246.838 418.5,246.5C 418.709,250.915 420.042,251.415 422.5,248C 424.259,247.202 425.926,247.369 427.5,248.5C 424.749,249.5 422.082,250.667 419.5,252C 420.737,252.232 421.737,252.732 422.5,253.5C 414.144,252.321 406.811,248.987 400.5,243.5C 400.726,239.708 401.56,236.041 403,232.5C 406.34,230.637 409.507,228.637 412.5,226.5C 413.209,225.596 414.209,225.263 415.5,225.5 Z"/></g>
<g><path style="opacity:1" fill="#575c61" d="M 415.5,232.5 C 417.39,232.297 418.89,232.963 420,234.5C 421.545,233.179 422.711,233.512 423.5,235.5C 419.972,236.734 417.305,235.734 415.5,232.5 Z"/></g>
<g><path style="opacity:1" fill="#ceccc6" d="M 412.5,226.5 C 409.507,228.637 406.34,230.637 403,232.5C 401.56,236.041 400.726,239.708 400.5,243.5C 397.861,246.342 398.194,249.009 401.5,251.5C 402.243,254.643 402.576,257.643 402.5,260.5C 399.131,262.511 395.464,263.511 391.5,263.5C 389.867,259.557 388.2,255.557 386.5,251.5C 384.55,250.628 382.55,249.961 380.5,249.5C 380.5,247.167 380.5,244.833 380.5,242.5C 385.672,242.817 390.672,242.151 395.5,240.5C 395.281,241.675 395.614,242.675 396.5,243.5C 397.466,241.604 397.799,239.604 397.5,237.5C 397.392,235.486 398.058,233.82 399.5,232.5C 403.195,229.153 407.528,227.153 412.5,226.5 Z"/></g>
<g><path style="opacity:1" fill="#b8a520" d="M 302.5,249.5 C 299.734,246.933 300.234,244.933 304,243.5C 309.244,245.66 314.577,245.993 320,244.5C 321.509,245.09 323.009,245.756 324.5,246.5C 323.833,247.167 323.167,247.833 322.5,248.5C 323.167,248.833 323.833,249.167 324.5,249.5C 317.01,250.819 309.677,250.819 302.5,249.5 Z"/></g>
<g><path style="opacity:1" fill="#edda18" d="M 302.5,249.5 C 302.5,248.167 302.5,246.833 302.5,245.5C 307.622,246.427 307.622,247.761 302.5,249.5 Z"/></g>
<g><path style="opacity:1" fill="#7eb5c1" d="M 221.5,244.5 C 222.953,244.929 224.619,245.096 226.5,245C 225.167,245.667 223.833,246.333 222.5,247C 225.119,246.917 227.786,246.75 230.5,246.5C 226.491,249.417 221.991,251.417 217,252.5C 214.808,252.137 212.974,251.137 211.5,249.5C 212.823,248.392 214.323,248.392 216,249.5C 217.893,248.804 219.726,247.97 221.5,247C 220.226,246.023 220.226,245.189 221.5,244.5 Z"/></g>
<g><path style="opacity:1" fill="#1c1f24" d="M 441.5,227.5 C 443.995,228.199 446.328,229.199 448.5,230.5C 447.002,235.25 448.668,238.083 453.5,239C 451.689,237.959 451.355,236.793 452.5,235.5C 454.592,238.088 455.925,241.088 456.5,244.5C 456.5,245.167 456.5,245.833 456.5,246.5C 454.516,249.164 451.849,250.831 448.5,251.5C 448.5,249.833 448.5,248.167 448.5,246.5C 447.5,246.5 446.5,246.5 445.5,246.5C 445.719,247.675 445.386,248.675 444.5,249.5C 442.865,250.33 441.198,250.497 439.5,250C 440.823,250.816 441.489,251.983 441.5,253.5C 440.833,253.5 440.167,253.5 439.5,253.5C 434.613,253.086 429.946,253.086 425.5,253.5C 424.5,253.5 423.5,253.5 422.5,253.5C 421.737,252.732 420.737,252.232 419.5,252C 422.082,250.667 424.749,249.5 427.5,248.5C 425.926,247.369 424.259,247.202 422.5,248C 420.042,251.415 418.709,250.915 418.5,246.5C 421.157,246.838 423.49,246.171 425.5,244.5C 422.296,243.796 419.129,243.13 416,242.5C 414.956,243.623 414.29,244.956 414,246.5C 413.598,245.128 413.098,243.795 412.5,242.5C 413.833,241.833 415.167,241.167 416.5,240.5C 416.291,239.914 415.957,239.414 415.5,239C 418.014,237.748 420.68,237.248 423.5,237.5C 423.5,238.5 423.5,239.5 423.5,240.5C 426.308,240.307 428.975,239.64 431.5,238.5C 431.5,239.5 431.5,240.5 431.5,241.5C 432.822,241.67 433.989,241.337 435,240.5C 435.667,242.5 435.667,244.5 435,246.5C 434.363,244.697 433.197,243.364 431.5,242.5C 426.268,245.377 426.935,246.877 433.5,247C 434.685,248.353 436.019,249.52 437.5,250.5C 439.635,249.119 441.968,248.119 444.5,247.5C 444.291,246.914 443.957,246.414 443.5,246C 441.82,245.966 440.32,245.799 439,245.5C 437.188,243.696 437.354,242.696 439.5,242.5C 441.143,242.48 442.476,243.147 443.5,244.5C 444.188,242.282 443.188,240.782 440.5,240C 441.662,239.173 442.829,238.34 444,237.5C 444.5,237.667 445,237.833 445.5,238C 444.692,238.308 444.025,238.808 443.5,239.5C 445.621,241.021 447.121,243.021 448,245.5C 447.78,241.51 447.113,237.51 446,233.5C 444.227,231.581 442.727,229.581 441.5,227.5 Z"/></g>
<g><path style="opacity:1" fill="#403f40" d="M 465.5,249.5 C 466.338,249.842 466.672,250.508 466.5,251.5C 464.449,253.038 462.782,252.704 461.5,250.5C 462.689,249.571 464.022,249.238 465.5,249.5 Z"/></g>
<g><path style="opacity:1" fill="#474a53" d="M 448.5,251.5 C 446.299,252.566 443.965,253.233 441.5,253.5C 441.489,251.983 440.823,250.816 439.5,250C 441.198,250.497 442.865,250.33 444.5,249.5C 445.386,248.675 445.719,247.675 445.5,246.5C 446.5,246.5 447.5,246.5 448.5,246.5C 448.5,248.167 448.5,249.833 448.5,251.5 Z"/></g>
<g><path style="opacity:1" fill="#d1b510" d="M 339.5,220.5 C 340.167,220.5 340.833,220.5 341.5,220.5C 341.83,238.008 341.497,255.341 340.5,272.5C 340.67,271.178 340.337,270.011 339.5,269C 335.294,268.739 331.127,268.239 327,267.5C 326.235,267.57 325.735,267.903 325.5,268.5C 324.662,268.158 324.328,267.492 324.5,266.5C 329.5,265.833 334.5,265.167 339.5,264.5C 339.5,263.5 339.5,262.5 339.5,261.5C 338.5,261.5 337.5,261.5 336.5,261.5C 337.104,257.299 338.27,253.299 340,249.5C 340.65,240.701 339.817,232.034 337.5,223.5C 337.942,222.261 338.609,221.261 339.5,220.5 Z"/></g>
<g><path style="opacity:1" fill="#cdd0d5" d="M 400.5,243.5 C 406.811,248.987 414.144,252.321 422.5,253.5C 423.5,253.5 424.5,253.5 425.5,253.5C 429.97,254.486 434.637,254.819 439.5,254.5C 435.542,255.262 430.209,255.928 423.5,256.5C 421.109,260.9 417.442,263.233 412.5,263.5C 410.026,262.895 407.693,261.895 405.5,260.5C 404.5,260.5 403.5,260.5 402.5,260.5C 402.576,257.643 402.243,254.643 401.5,251.5C 398.194,249.009 397.861,246.342 400.5,243.5 Z"/></g>
<g><path style="opacity:1" fill="#6b7177" d="M 439.5,253.5 C 439.5,253.833 439.5,254.167 439.5,254.5C 434.637,254.819 429.97,254.486 425.5,253.5C 429.946,253.086 434.613,253.086 439.5,253.5 Z"/></g>
<g><path style="opacity:1" fill="#c5c5c7" d="M 160.5,220.5 C 162.552,226.23 164.052,232.23 165,238.5C 166.143,249.83 166.81,261.163 167,272.5C 165.329,255.119 163.163,237.786 160.5,220.5 Z"/></g>
<g><path style="opacity:1" fill="#b8bec1" d="M 456.5,246.5 C 457.115,250.991 456.115,254.991 453.5,258.5C 451.611,259.604 449.945,260.937 448.5,262.5C 447.167,263.167 445.833,263.833 444.5,264.5C 441.934,264.656 439.434,264.322 437,263.5C 429.279,265.457 421.445,265.957 413.5,265C 412.944,264.617 412.611,264.117 412.5,263.5C 417.442,263.233 421.109,260.9 423.5,256.5C 430.209,255.928 435.542,255.262 439.5,254.5C 439.5,254.167 439.5,253.833 439.5,253.5C 440.167,253.5 440.833,253.5 441.5,253.5C 443.965,253.233 446.299,252.566 448.5,251.5C 451.849,250.831 454.516,249.164 456.5,246.5 Z"/></g>
<g><path style="opacity:1" fill="#dededf" d="M 215.5,258.5 C 218.187,258.336 220.854,258.503 223.5,259C 226.792,259.756 227.792,261.589 226.5,264.5C 224.999,263.248 223.332,262.248 221.5,261.5C 220.281,262.646 218.948,263.646 217.5,264.5C 218.991,265.244 220.491,265.91 222,266.5C 222.617,267.449 222.451,268.282 221.5,269C 222.5,269.333 223.5,269.667 224.5,270C 224.167,270.333 223.833,270.667 223.5,271C 219.526,271.996 215.526,272.829 211.5,273.5C 210.754,269.892 210.42,266.392 210.5,263C 211.43,260.565 213.097,259.065 215.5,258.5 Z"/></g>
<g><path style="opacity:1" fill="#e3cb31" d="M 285.5,220.5 C 287.436,222.115 288.436,224.282 288.5,227C 288.034,231.691 287.034,236.191 285.5,240.5C 286,244.5 286.5,248.5 287,252.5C 287.22,254.973 288.386,256.64 290.5,257.5C 289.045,261.319 289.378,264.985 291.5,268.5C 290.739,269.391 289.739,270.058 288.5,270.5C 287.614,271.325 287.281,272.325 287.5,273.5C 286.5,273.5 285.5,273.5 284.5,273.5C 283.888,264.025 283.555,254.525 283.5,245C 283.502,236.472 284.169,228.305 285.5,220.5 Z"/></g>
<g><path style="opacity:1" fill="#e7cfa7" d="M 316.5,258.5 C 319.144,261.157 321.811,263.824 324.5,266.5C 324.328,267.492 324.662,268.158 325.5,268.5C 327.298,271.075 329.631,271.908 332.5,271C 333.252,271.671 333.586,272.504 333.5,273.5C 323.833,273.5 314.167,273.5 304.5,273.5C 304.5,273.167 304.5,272.833 304.5,272.5C 305.995,272.011 307.329,271.345 308.5,270.5C 316.626,272.419 317.459,270.753 311,265.5C 309.952,259.526 308.452,259.192 306.5,264.5C 304.959,261.25 303.292,258.083 301.5,255C 298.038,254.54 294.704,255.04 291.5,256.5C 292.749,254.864 294.416,253.697 296.5,253C 300.926,252.209 305.259,252.543 309.5,254C 311.683,255.777 314.016,257.277 316.5,258.5 Z"/></g>
<g><path style="opacity:1" fill="#d1bf44" d="M 341.5,220.5 C 342.18,237.706 342.846,255.039 343.5,272.5C 342.311,273.429 340.978,273.762 339.5,273.5C 339.5,272.833 339.833,272.5 340.5,272.5C 341.497,255.341 341.83,238.008 341.5,220.5 Z"/></g>
<g><path style="opacity:1" fill="#beaf99" d="M 448.5,262.5 C 450.5,262.5 452.5,262.5 454.5,262.5C 454.351,263.552 454.517,264.552 455,265.5C 457.445,266.906 459.945,268.24 462.5,269.5C 463.705,270.577 464.372,271.91 464.5,273.5C 453.833,273.5 443.167,273.5 432.5,273.5C 432.5,273.167 432.5,272.833 432.5,272.5C 434.167,272.5 435.833,272.5 437.5,272.5C 439.857,272.663 442.19,272.497 444.5,272C 443.733,270.53 443.067,269.03 442.5,267.5C 443.906,267.027 444.573,266.027 444.5,264.5C 445.833,263.833 447.167,263.167 448.5,262.5 Z"/></g>
<g><path style="opacity:1" fill="#e7c789" d="M 336.5,261.5 C 337.5,261.5 338.5,261.5 339.5,261.5C 339.5,262.5 339.5,263.5 339.5,264.5C 334.5,265.167 329.5,265.833 324.5,266.5C 321.811,263.824 319.144,261.157 316.5,258.5C 322.066,252.63 325.733,253.796 327.5,262C 330.696,262.805 333.696,262.638 336.5,261.5 Z"/></g>
<g><path style="opacity:1" fill="#c8bfaf" d="M 465.5,249.5 C 464.022,249.238 462.689,249.571 461.5,250.5C 462.782,252.704 464.449,253.038 466.5,251.5C 468.877,252.672 471.21,252.339 473.5,250.5C 473.666,257.175 473.5,263.842 473,270.5C 470.804,273.125 467.97,274.125 464.5,273.5C 464.372,271.91 463.705,270.577 462.5,269.5C 459.945,268.24 457.445,266.906 455,265.5C 454.517,264.552 454.351,263.552 454.5,262.5C 452.5,262.5 450.5,262.5 448.5,262.5C 449.945,260.937 451.611,259.604 453.5,258.5C 455.757,258.038 457.757,257.038 459.5,255.5C 458.947,253.273 458.947,250.939 459.5,248.5C 461.735,248.205 463.735,248.539 465.5,249.5 Z"/></g>
<g><path style="opacity:1" fill="#a76c3f" d="M 306.5,264.5 C 306.5,264.833 306.5,265.167 306.5,265.5C 306.209,266.649 305.376,267.316 304,267.5C 299.989,268.359 296.155,268.693 292.5,268.5C 292.167,268.5 291.833,268.5 291.5,268.5C 289.378,264.985 289.045,261.319 290.5,257.5C 290.5,256.833 290.833,256.5 291.5,256.5C 294.704,255.04 298.038,254.54 301.5,255C 303.292,258.083 304.959,261.25 306.5,264.5 Z"/></g>
<g><path style="opacity:1" fill="#a9a296" d="M 380.5,249.5 C 382.55,249.961 384.55,250.628 386.5,251.5C 388.2,255.557 389.867,259.557 391.5,263.5C 395.464,263.511 399.131,262.511 402.5,260.5C 403.5,260.5 404.5,260.5 405.5,260.5C 404.942,261.79 403.942,262.623 402.5,263C 399.638,263.27 396.972,264.104 394.5,265.5C 395.167,265.833 395.833,266.167 396.5,266.5C 400.345,264.704 404.345,263.87 408.5,264C 406.365,265.381 404.032,266.381 401.5,267C 403.058,267.21 404.391,267.71 405.5,268.5C 402.05,267.756 400.384,269.09 400.5,272.5C 401.833,272.5 403.167,272.5 404.5,272.5C 404.5,272.833 404.5,273.167 404.5,273.5C 402.167,273.5 399.833,273.5 397.5,273.5C 397.38,272.414 396.713,271.747 395.5,271.5C 394.287,271.747 393.62,272.414 393.5,273.5C 390.15,273.665 386.817,273.498 383.5,273C 382.667,272.167 381.833,271.333 381,270.5C 380.5,263.508 380.334,256.508 380.5,249.5 Z"/></g>
<g><path style="opacity:1" fill="#252120" d="M 383.5,260.5 C 388.073,260.976 388.573,262.642 385,265.5C 382.389,264.5 381.889,262.833 383.5,260.5 Z"/></g>
<g><path style="opacity:1" fill="#b8b9b3" d="M 405.5,260.5 C 407.693,261.895 410.026,262.895 412.5,263.5C 412.611,264.117 412.944,264.617 413.5,265C 421.445,265.957 429.279,265.457 437,263.5C 439.434,264.322 441.934,264.656 444.5,264.5C 444.573,266.027 443.906,267.027 442.5,267.5C 434.166,268.803 425.833,268.803 417.5,267.5C 417.167,267.833 416.833,268.167 416.5,268.5C 418.404,269.766 419.737,271.433 420.5,273.5C 415.167,273.5 409.833,273.5 404.5,273.5C 404.5,273.167 404.5,272.833 404.5,272.5C 405.234,271.292 405.567,269.959 405.5,268.5C 404.391,267.71 403.058,267.21 401.5,267C 404.032,266.381 406.365,265.381 408.5,264C 404.345,263.87 400.345,264.704 396.5,266.5C 395.833,266.167 395.167,265.833 394.5,265.5C 396.972,264.104 399.638,263.27 402.5,263C 403.942,262.623 404.942,261.79 405.5,260.5 Z"/></g>
<g><path style="opacity:1" fill="#bb924d" d="M 308.5,270.5 C 309.897,268.178 309.23,266.511 306.5,265.5C 306.5,265.167 306.5,264.833 306.5,264.5C 308.452,259.192 309.952,259.526 311,265.5C 317.459,270.753 316.626,272.419 308.5,270.5 Z"/></g>
<g><path style="opacity:1" fill="#f4dc1f" d="M 340.5,272.5 C 339.833,272.5 339.5,272.833 339.5,273.5C 337.5,273.5 335.5,273.5 333.5,273.5C 333.586,272.504 333.252,271.671 332.5,271C 329.631,271.908 327.298,271.075 325.5,268.5C 325.735,267.903 326.235,267.57 327,267.5C 331.127,268.239 335.294,268.739 339.5,269C 340.337,270.011 340.67,271.178 340.5,272.5 Z"/></g>
<g><path style="opacity:1" fill="#999283" d="M 442.5,267.5 C 443.067,269.03 443.733,270.53 444.5,272C 442.19,272.497 439.857,272.663 437.5,272.5C 436.402,271.603 436.402,270.77 437.5,270C 432.597,269.063 427.93,269.73 423.5,272C 426.482,272.498 429.482,272.665 432.5,272.5C 432.5,272.833 432.5,273.167 432.5,273.5C 428.5,273.5 424.5,273.5 420.5,273.5C 419.737,271.433 418.404,269.766 416.5,268.5C 416.833,268.167 417.167,267.833 417.5,267.5C 425.833,268.803 434.166,268.803 442.5,267.5 Z"/></g>
<g><path style="opacity:1" fill="#854e27" d="M 306.5,265.5 C 309.23,266.511 309.897,268.178 308.5,270.5C 307.329,271.345 305.995,272.011 304.5,272.5C 301.272,272.701 298.105,272.367 295,271.5C 293.69,270.87 292.856,269.87 292.5,268.5C 296.155,268.693 299.989,268.359 304,267.5C 305.376,267.316 306.209,266.649 306.5,265.5 Z"/></g>
<g><path style="opacity:1" fill="#212224" d="M 405.5,268.5 C 405.567,269.959 405.234,271.292 404.5,272.5C 403.167,272.5 401.833,272.5 400.5,272.5C 400.384,269.09 402.05,267.756 405.5,268.5 Z"/></g>
<g><path style="opacity:1" fill="#73624b" d="M 437.5,272.5 C 435.833,272.5 434.167,272.5 432.5,272.5C 429.482,272.665 426.482,272.498 423.5,272C 427.93,269.73 432.597,269.063 437.5,270C 436.402,270.77 436.402,271.603 437.5,272.5 Z"/></g>
<g><path style="opacity:1" fill="#d2b143" d="M 291.5,268.5 C 291.833,268.5 292.167,268.5 292.5,268.5C 292.856,269.87 293.69,270.87 295,271.5C 298.105,272.367 301.272,272.701 304.5,272.5C 304.5,272.833 304.5,273.167 304.5,273.5C 298.833,273.5 293.167,273.5 287.5,273.5C 287.281,272.325 287.614,271.325 288.5,270.5C 289.739,270.058 290.739,269.391 291.5,268.5 Z"/></g>
<g><path style="opacity:1" fill="#4a4748" d="M 397.5,273.5 C 396.167,273.5 394.833,273.5 393.5,273.5C 393.62,272.414 394.287,271.747 395.5,271.5C 396.713,271.747 397.38,272.414 397.5,273.5 Z"/></g>
<g><path style="opacity:1" fill="#5f88b7" d="M 156.5,292.5 C 158.5,292.5 160.5,292.5 162.5,292.5C 162.281,293.675 162.614,294.675 163.5,295.5C 164.696,295.154 164.696,294.654 163.5,294C 167.666,292.875 171.999,292.875 176.5,294C 171.291,298.129 165.625,298.629 159.5,295.5C 157.55,296.152 156.55,295.152 156.5,292.5 Z"/></g>
<g><path style="opacity:1" fill="#7fa2c7" d="M 178.5,291.5 C 181.187,291.336 183.854,291.503 186.5,292C 188.107,293.049 188.773,294.549 188.5,296.5C 186.5,296.5 184.5,296.5 182.5,296.5C 182.322,292.898 181.322,292.898 179.5,296.5C 178.548,294.955 178.215,293.288 178.5,291.5 Z"/></g>
<g><path style="opacity:1" fill="#7194be" d="M 271.5,292.5 C 272.859,293.007 273.859,294.007 274.5,295.5C 278.241,293.669 282.241,293.003 286.5,293.5C 286.5,294.5 286.5,295.5 286.5,296.5C 285.178,296.67 284.011,296.337 283,295.5C 281.582,298.001 280.582,297.668 280,294.5C 277.711,296.906 275.044,297.572 272,296.5C 271.51,295.207 271.343,293.873 271.5,292.5 Z"/></g>
<g><path style="opacity:1" fill="#5a79b3" d="M 193.5,293.5 C 195.646,293.696 195.812,294.696 194,296.5C 193.517,295.552 193.351,294.552 193.5,293.5 Z"/></g>
<g><path style="opacity:1" fill="#3b75ae" d="M 190.5,293.5 C 192.048,293.821 192.715,294.821 192.5,296.5C 189.752,296.598 189.086,295.598 190.5,293.5 Z"/></g>
<g><path style="opacity:1" fill="#7a97bf" d="M 290.5,292.5 C 295.699,292.557 301.032,292.89 306.5,293.5C 306.5,294.5 306.5,295.5 306.5,296.5C 300.925,296.985 295.258,296.985 289.5,296.5C 289.433,295.041 289.766,293.708 290.5,292.5 Z"/></g>
<g><path style="opacity:1" fill="#6a92be" d="M 386.5,292.5 C 391.196,292.671 395.863,293.171 400.5,294C 397.833,294.667 397.833,295.333 400.5,296C 395.845,296.499 391.179,296.666 386.5,296.5C 386.5,295.167 386.5,293.833 386.5,292.5 Z"/></g>
<g><path style="opacity:1" fill="#5a80b3" d="M 401.5,292.5 C 403.912,292.694 404.912,294.027 404.5,296.5C 403.5,296.5 402.5,296.5 401.5,296.5C 401.5,295.167 401.5,293.833 401.5,292.5 Z"/></g>
<g><path style="opacity:1" fill="#5482b4" d="M 407.5,292.5 C 409.451,292.227 410.951,292.893 412,294.5C 414.381,293.565 416.881,293.232 419.5,293.5C 419.5,294.5 419.5,295.5 419.5,296.5C 415.713,296.22 412.047,296.22 408.5,296.5C 407.571,295.311 407.238,293.978 407.5,292.5 Z"/></g>
<g><path style="opacity:1" fill="#6f99c2" d="M 420.5,293.5 C 421.5,293.5 422.5,293.5 423.5,293.5C 423.5,294.5 423.5,295.5 423.5,296.5C 422.5,296.5 421.5,296.5 420.5,296.5C 420.5,295.5 420.5,294.5 420.5,293.5 Z"/></g>
<g><path style="opacity:1" fill="#de424e" d="M 214.5,304.5 C 221.508,304.334 228.508,304.5 235.5,305C 240.428,308.517 240.761,312.517 236.5,317C 228.833,317.667 221.167,317.667 213.5,317C 209.309,312.46 209.642,308.293 214.5,304.5 Z"/></g>
<g><path style="opacity:1" fill="#de414d" d="M 329.5,304.5 C 336.508,304.334 343.508,304.5 350.5,305C 355.428,308.517 355.761,312.517 351.5,317C 343.833,317.667 336.167,317.667 328.5,317C 324.286,312.361 324.619,308.195 329.5,304.5 Z"/></g>
<g><path style="opacity:1" fill="#de424e" d="M 444.5,304.5 C 451.508,304.334 458.508,304.5 465.5,305C 470.423,308.615 470.756,312.615 466.5,317C 458.833,317.667 451.167,317.667 443.5,317C 439.39,312.491 439.723,308.324 444.5,304.5 Z"/></g>
<g><path style="opacity:1" fill="#3368a6" d="M 164.5,308.5 C 166.167,308.5 167.833,308.5 169.5,308.5C 169.617,310.484 168.95,312.15 167.5,313.5C 170.321,314.842 170.154,315.508 167,315.5C 166.167,315.167 165.333,314.833 164.5,314.5C 165.5,313.167 166.5,311.833 167.5,310.5C 167.062,309.494 166.396,309.494 165.5,310.5C 164.702,310.043 164.369,309.376 164.5,308.5 Z"/></g>
<g><path style="opacity:1" fill="#426da9" d="M 171.5,308.5 C 173.167,308.5 174.833,308.5 176.5,308.5C 176.662,310.527 176.495,312.527 176,314.5C 171.082,315.397 169.582,313.397 171.5,308.5 Z"/></g>
<g><path style="opacity:1" fill="#356aa8" d="M 188.5,314.5 C 188.5,312.833 188.5,311.167 188.5,309.5C 189.919,308.549 191.585,308.216 193.5,308.5C 193.662,310.527 193.495,312.527 193,314.5C 191.384,315.801 189.884,315.801 188.5,314.5 Z"/></g>
<g><path style="opacity:1" fill="#b7cce1" d="M 276.5,308.5 C 277.609,308.557 278.609,308.89 279.5,309.5C 279.5,310.167 279.5,310.833 279.5,311.5C 278.833,312.5 278.167,313.5 277.5,314.5C 277.5,313.5 277.5,312.5 277.5,311.5C 272.914,310.985 272.581,309.985 276.5,308.5 Z"/></g>
<g><path style="opacity:1" fill="#3d6ea9" d="M 157.5,308.5 C 159.288,308.215 160.955,308.548 162.5,309.5C 162.08,311.326 162.08,313.326 162.5,315.5C 160.571,315.769 158.905,315.269 157.5,314C 161.19,313.576 161.357,312.742 158,311.5C 157.517,310.552 157.351,309.552 157.5,308.5 Z"/></g>
<g><path style="opacity:1" fill="#c2d1e2" d="M 172.5,309.5 C 173.649,309.791 174.316,310.624 174.5,312C 174.333,312.833 174.167,313.667 174,314.5C 172.731,313.095 172.231,311.429 172.5,309.5 Z"/></g>
<g><path style="opacity:1" fill="#8fa5c3" d="M 186.5,309.5 C 187.167,309.5 187.833,309.5 188.5,309.5C 188.5,311.167 188.5,312.833 188.5,314.5C 187.833,314.5 187.167,314.5 186.5,314.5C 186.5,312.833 186.5,311.167 186.5,309.5 Z"/></g>
<g><path style="opacity:1" fill="#bfd4e5" d="M 189.5,309.5 C 190.649,309.791 191.316,310.624 191.5,312C 191.333,312.833 191.167,313.667 191,314.5C 189.731,313.095 189.231,311.429 189.5,309.5 Z"/></g>
<g><path style="opacity:1" fill="#4672ac" d="M 296.5,308.5 C 300.208,309.387 303.875,309.554 307.5,309C 309.482,315.356 307.648,316.856 302,313.5C 300.867,315.211 299.367,315.711 297.5,315C 296.577,312.959 296.244,310.792 296.5,308.5 Z"/></g>
<g><path style="opacity:1" fill="#4977b0" d="M 401.5,308.5 C 402.873,308.343 404.207,308.51 405.5,309C 404.833,309.333 404.167,309.667 403.5,310C 407.464,312.005 407.464,313.838 403.5,315.5C 399.608,314.145 399.941,313.311 404.5,313C 403.552,312.517 402.552,312.351 401.5,312.5C 401.5,311.167 401.5,309.833 401.5,308.5 Z"/></g>
<g><path style="opacity:1" fill="#3f70ab" d="M 418.5,308.5 C 423.328,308.385 424.661,310.552 422.5,315C 417.57,315.427 416.237,313.26 418.5,308.5 Z"/></g>
<g><path style="opacity:1" fill="#ccdbe4" d="M 419.5,309.5 C 420.586,309.62 421.253,310.287 421.5,311.5C 421.167,312.167 420.833,312.833 420.5,313.5C 419.571,312.311 419.238,310.978 419.5,309.5 Z"/></g>
<g><path style="opacity:1" fill="#f2afb2" d="M 453.5,309.5 C 453.611,311.648 452.944,311.981 451.5,310.5C 450.702,310.957 450.369,311.624 450.5,312.5C 448.183,313.534 447.183,312.534 447.5,309.5C 449.5,309.5 451.5,309.5 453.5,309.5 Z"/></g>
<g><path style="opacity:1" fill="#f5bbbb" d="M 456.5,309.5 C 458.048,309.821 458.715,310.821 458.5,312.5C 457.094,312.027 456.427,311.027 456.5,309.5 Z"/></g>
<g><path style="opacity:1" fill="#efa4a9" d="M 218.5,309.5 C 221.079,309.083 223.246,309.75 225,311.5C 226.049,309.893 227.549,309.227 229.5,309.5C 229.427,312.95 227.594,314.283 224,313.5C 222.106,313.42 220.273,313.087 218.5,312.5C 217.438,311.575 217.438,310.575 218.5,309.5 Z"/></g>
<g><path style="opacity:1" fill="#f1b2af" d="M 231.5,309.5 C 233.346,309.222 234.68,309.889 235.5,311.5C 233.167,312.941 231.834,312.275 231.5,309.5 Z"/></g>
<g><path style="opacity:1" fill="#3269a5" d="M 279.5,311.5 C 279.5,310.833 279.5,310.167 279.5,309.5C 280.583,309.461 281.583,309.127 282.5,308.5C 283.833,310.833 283.833,313.167 282.5,315.5C 281.943,313.668 280.943,312.335 279.5,311.5 Z"/></g>
<g><path style="opacity:1" fill="#4475ae" d="M 286.5,308.5 C 288.199,308.34 289.866,308.506 291.5,309C 287.81,309.424 287.643,310.258 291,311.5C 291.514,315.265 290.014,316.265 286.5,314.5C 290.311,313.262 290.311,312.596 286.5,312.5C 286.5,311.167 286.5,309.833 286.5,308.5 Z"/></g>
<g><path style="opacity:1" fill="#f1a3b4" d="M 345.5,309.5 C 347.665,309.116 349.332,309.783 350.5,311.5C 348.069,312.786 346.403,312.119 345.5,309.5 Z"/></g>
<g><path style="opacity:1" fill="#426da9" d="M 387.5,308.5 C 389.288,308.215 390.955,308.548 392.5,309.5C 392.431,311.278 392.097,313.111 391.5,315C 390.056,315.781 388.723,315.614 387.5,314.5C 388.025,313.808 388.692,313.308 389.5,313C 387.963,311.89 387.297,310.39 387.5,308.5 Z"/></g>
<g><path style="opacity:1" fill="#3165a6" d="M 396.5,308.5 C 397.725,309.152 398.392,310.319 398.5,312C 398.167,313.167 397.833,314.333 397.5,315.5C 396.752,313.668 395.752,312.001 394.5,310.5C 395.243,309.818 395.909,309.151 396.5,308.5 Z"/></g>
<g><path style="opacity:1" fill="#f1b8bc" d="M 460.5,309.5 C 462.716,309.275 464.383,310.108 465.5,312C 462.981,312.741 461.315,311.908 460.5,309.5 Z"/></g>
<g><path style="opacity:1" fill="#a0c4e0" d="M 297.5,309.5 C 298.649,309.791 299.316,310.624 299.5,312C 299.333,312.833 299.167,313.667 299,314.5C 297.731,313.095 297.231,311.429 297.5,309.5 Z"/></g>
<g><path style="opacity:1" fill="#c6dbe9" d="M 304.5,309.5 C 305.586,309.62 306.253,310.287 306.5,311.5C 306.167,312.167 305.833,312.833 305.5,313.5C 304.571,312.311 304.238,310.978 304.5,309.5 Z"/></g>
<g><path style="opacity:1" fill="#efa4aa" d="M 332.5,309.5 C 335.394,309.042 337.894,309.709 340,311.5C 341.481,308.936 342.981,308.936 344.5,311.5C 344.291,312.086 343.957,312.586 343.5,313C 340.333,313.252 337.333,313.418 334.5,313.5C 332.889,312.68 332.222,311.346 332.5,309.5 Z"/></g>
<g><path style="opacity:1" fill="#e56c72" d="M 453.5,309.5 C 454.222,309.918 454.722,310.584 455,311.5C 455.278,310.584 455.778,309.918 456.5,309.5C 456.427,311.027 457.094,312.027 458.5,312.5C 455.939,313.767 453.272,313.767 450.5,312.5C 450.369,311.624 450.702,310.957 451.5,310.5C 452.944,311.981 453.611,311.648 453.5,309.5 Z"/></g>
<g><path style="opacity:1" fill="#3266a4" d="M 276.5,308.5 C 272.581,309.985 272.914,310.985 277.5,311.5C 277.5,312.5 277.5,313.5 277.5,314.5C 275.815,315.844 274.148,315.677 272.5,314C 276.19,313.576 276.357,312.742 273,311.5C 272.517,310.552 272.351,309.552 272.5,308.5C 273.833,308.5 275.167,308.5 276.5,308.5 Z"/></g>
<g><path style="opacity:1" fill="#4070ac" d="M 177.5,313.5 C 179.337,313.639 179.67,314.306 178.5,315.5C 177.702,315.043 177.369,314.376 177.5,313.5 Z"/></g>
<g><path style="opacity:1" fill="#5579b1" d="M 186.5,309.5 C 186.5,311.167 186.5,312.833 186.5,314.5C 184.99,315.728 183.49,315.728 182,314.5C 181.505,312.527 181.338,310.527 181.5,308.5C 183.415,308.216 185.081,308.549 186.5,309.5 Z"/></g>
<g><path style="opacity:1" fill="#416faa" d="M 292.5,313.5 C 294.337,313.639 294.67,314.306 293.5,315.5C 292.702,315.043 292.369,314.376 292.5,313.5 Z"/></g>
<g><path style="opacity:1" fill="#3c73af" d="M 407.5,313.5 C 409.337,313.639 409.67,314.306 408.5,315.5C 407.702,315.043 407.369,314.376 407.5,313.5 Z"/></g>
<g><path style="opacity:1" fill="#4270ab" d="M 411.5,308.5 C 416.328,308.385 417.661,310.552 415.5,315C 414.207,315.49 412.873,315.657 411.5,315.5C 411.5,313.167 411.5,310.833 411.5,308.5 Z"/></g>
<g><path style="opacity:1" fill="#c4d5e5" d="M 412.5,309.5 C 413.649,309.791 414.316,310.624 414.5,312C 414.333,312.833 414.167,313.667 414,314.5C 412.731,313.095 412.231,311.429 412.5,309.5 Z"/></g>
<g><path style="opacity:1" fill="#7699c0" d="M 393.5,322.5 C 398.863,322.803 404.197,323.136 409.5,323.5C 409.762,324.978 409.429,326.311 408.5,327.5C 403.565,326.552 398.565,326.219 393.5,326.5C 393.5,325.167 393.5,323.833 393.5,322.5 Z"/></g>
<g><path style="opacity:1" fill="#80a0c4" d="M 163.5,322.5 C 165.827,322.665 167.993,323.331 170,324.5C 171.333,323.833 172.667,323.167 174,322.5C 177.041,322.42 180.207,322.753 183.5,323.5C 183.5,324.5 183.5,325.5 183.5,326.5C 176.682,326.118 170.016,326.118 163.5,326.5C 163.5,325.167 163.5,323.833 163.5,322.5 Z"/></g>
<g><path style="opacity:1" fill="#80a0c4" d="M 278.5,322.5 C 280.766,322.141 282.599,322.808 284,324.5C 290.194,322.862 296.361,322.528 302.5,323.5C 302.5,324.5 302.5,325.5 302.5,326.5C 294.835,325.976 286.835,325.976 278.5,326.5C 278.5,325.167 278.5,323.833 278.5,322.5 Z"/></g>
<g><path style="opacity:1" fill="#80a5c7" d="M 411.5,322.5 C 414.5,322.5 417.5,322.5 420.5,322.5C 420.5,323.833 420.5,325.167 420.5,326.5C 417.653,326.218 414.987,326.218 412.5,326.5C 411.571,325.311 411.238,323.978 411.5,322.5 Z"/></g>
<g><path style="opacity:1" fill="#14549b" d="M 161.5,330.5 C 184.836,330.333 208.169,330.5 231.5,331C 238.562,332.958 241.062,337.458 239,344.5C 237.833,347 236,348.833 233.5,350C 209.167,350.667 184.833,350.667 160.5,350C 152.191,343.012 152.524,336.512 161.5,330.5 Z"/></g>
<g><path style="opacity:1" fill="#70a2dc" d="M 276.5,330.5 C 300.169,330.333 323.836,330.5 347.5,331C 354.106,333.253 356.273,337.753 354,344.5C 352.833,347 351,348.833 348.5,350C 324.167,350.667 299.833,350.667 275.5,350C 269.614,346.194 268.114,341.028 271,334.5C 272.812,333.023 274.645,331.69 276.5,330.5 Z"/></g>
<g><path style="opacity:1" fill="#70a2dc" d="M 391.5,330.5 C 414.836,330.333 438.169,330.5 461.5,331C 469.417,333.72 471.584,338.887 468,346.5C 466.786,348.049 465.286,349.215 463.5,350C 439.167,350.667 414.833,350.667 390.5,350C 385.365,346.945 383.532,342.445 385,336.5C 387.063,334.266 389.229,332.266 391.5,330.5 Z"/></g>
<g><path style="opacity:1" fill="#5b8fc5" d="M 193.5,338.5 C 192.549,339.919 192.216,341.585 192.5,343.5C 191.833,342.833 191.167,342.167 190.5,341.5C 188.804,337.978 188.138,338.644 188.5,343.5C 187.539,341.735 187.205,339.735 187.5,337.5C 189.735,337.205 191.735,337.539 193.5,338.5 Z"/></g>
<g><path style="opacity:1" fill="#d7e1e8" d="M 190.5,341.5 C 189.833,342.167 189.167,342.833 188.5,343.5C 188.138,338.644 188.804,337.978 190.5,341.5 Z"/></g>
<g><path style="opacity:1" fill="#a0b9d2" d="M 193.5,338.5 C 197.702,339.799 202.036,339.799 206.5,338.5C 207.452,340.045 207.785,341.712 207.5,343.5C 202.5,343.5 197.5,343.5 192.5,343.5C 192.216,341.585 192.549,339.919 193.5,338.5 Z"/></g>
<g><path style="opacity:1" fill="#ccddf2" d="M 407.5,338.5 C 409.766,338.141 411.599,338.808 413,340.5C 417.801,339.808 422.635,339.142 427.5,338.5C 431.853,339.558 436.353,339.558 441,338.5C 442.92,338.938 444.754,339.605 446.5,340.5C 445.975,341.192 445.308,341.692 444.5,342C 444.833,342.333 445.167,342.667 445.5,343C 444.667,343.167 443.833,343.333 443,343.5C 435.88,343.77 428.88,343.437 422,342.5C 420.333,345.167 418.667,345.167 417,342.5C 415.111,343.097 413.278,343.431 411.5,343.5C 410.808,342.975 410.308,342.308 410,341.5C 409.692,342.308 409.192,342.975 408.5,343.5C 407.548,341.955 407.215,340.288 407.5,338.5 Z"/></g>
<g><path style="opacity:1" fill="#c9dcf2" d="M 292.5,338.5 C 305.957,338.271 318.957,338.605 331.5,339.5C 331.5,340.833 331.5,342.167 331.5,343.5C 324.735,343.484 317.902,343.151 311,342.5C 309.077,343.316 307.077,343.983 305,344.5C 303.832,343.491 302.665,342.491 301.5,341.5C 300.149,344.143 297.982,344.143 295,341.5C 294.692,342.308 294.192,342.975 293.5,343.5C 292.548,341.955 292.215,340.288 292.5,338.5 Z"/></g>
<g><path style="opacity:1" fill="#a5a8aa" d="M 246.5,194.5 C 247.117,194.611 247.617,194.944 248,195.5C 248.667,249.5 248.667,303.5 248,357.5C 246.603,359.07 245.103,360.404 243.5,361.5C 212.5,361.5 181.5,361.5 150.5,361.5C 149.449,360.778 148.782,359.778 148.5,358.5C 149.922,358.709 151.255,359.209 152.5,360C 182.5,360.667 212.5,360.667 242.5,360C 244.286,359.215 245.786,358.049 247,356.5C 247.825,302.459 247.658,248.459 246.5,194.5 Z"/></g>
<g><path style="opacity:1" fill="#a1a4a7" d="M 260.5,354.5 C 260.833,354.5 261.167,354.5 261.5,354.5C 262.277,357.112 263.944,358.945 266.5,360C 296.833,360.667 327.167,360.667 357.5,360C 359.66,359.004 361.327,357.504 362.5,355.5C 362.833,355.5 363.167,355.5 363.5,355.5C 362.55,358.115 360.883,360.115 358.5,361.5C 327.5,361.5 296.5,361.5 265.5,361.5C 262.71,360.033 261.044,357.7 260.5,354.5 Z"/></g>
<g><path style="opacity:1" fill="#999c9e" d="M 382.5,192.5 C 382.5,192.167 382.5,191.833 382.5,191.5C 413.168,191.333 443.835,191.5 474.5,192C 475.333,192.833 476.167,193.667 477,194.5C 478.658,248.417 478.991,302.417 478,356.5C 476.975,358.687 475.475,360.354 473.5,361.5C 442.5,361.5 411.5,361.5 380.5,361.5C 377.71,360.033 376.044,357.7 375.5,354.5C 375.833,354.5 376.167,354.5 376.5,354.5C 377.277,357.112 378.944,358.945 381.5,360C 411.5,360.667 441.5,360.667 471.5,360C 474.667,359.5 476.5,357.667 477,354.5C 477.991,301.417 477.658,248.417 476,195.5C 475.097,194.299 473.931,193.465 472.5,193C 442.502,192.5 412.502,192.333 382.5,192.5 Z"/></g>
<g><path style="opacity:1" fill="#a5a9ab" d="M 592.5,196.5 C 593.222,196.918 593.722,197.584 594,198.5C 594.667,250.5 594.667,302.5 594,354.5C 593.033,357.621 591.2,359.954 588.5,361.5C 557.5,361.5 526.5,361.5 495.5,361.5C 492.669,360.002 491.002,357.669 490.5,354.5C 490.168,302.331 490.501,250.331 491.5,198.5C 491.009,251.584 491.509,304.584 493,357.5C 493.903,358.701 495.069,359.535 496.5,360C 526.5,360.667 556.5,360.667 586.5,360C 589.232,359.602 591.065,358.102 592,355.5C 592.5,302.501 592.667,249.501 592.5,196.5 Z"/></g>
<g><path style="opacity:1" fill="#70a2dc" d="M 506.5,330.5 C 529.836,330.333 553.169,330.5 576.5,331C 583.339,333.157 585.839,337.657 584,344.5C 582.833,347 581,348.833 578.5,350C 554.167,350.667 529.833,350.667 505.5,350C 499.458,346.252 497.958,341.085 501,334.5C 502.5,332.531 504.333,331.198 506.5,330.5 Z"/></g>
<g><path style="opacity:1" fill="#cbddf2" d="M 522.5,338.5 C 523.94,339.363 525.274,339.363 526.5,338.5C 527.192,339.025 527.692,339.692 528,340.5C 530.893,340.047 533.893,340.047 537,340.5C 538.785,339.76 540.618,339.093 542.5,338.5C 546.853,339.558 551.353,339.558 556,338.5C 557.92,338.938 559.754,339.605 561.5,340.5C 560.975,341.192 560.308,341.692 559.5,342C 559.833,342.333 560.167,342.667 560.5,343C 552.398,343.654 544.565,343.487 537,342.5C 535.216,345.003 533.549,345.003 532,342.5C 529.107,342.587 526.273,342.92 523.5,343.5C 522.548,341.955 522.215,340.288 522.5,338.5 Z"/></g>
<g><path style="opacity:1" fill="#7395bd" d="M 522.5,322.5 C 526.798,323.2 531.131,323.533 535.5,323.5C 534.98,328.03 533.814,328.363 532,324.5C 529.196,326.344 526.03,327.011 522.5,326.5C 522.5,325.167 522.5,323.833 522.5,322.5 Z"/></g>
<g><path style="opacity:1" fill="#7598c0" d="M 507.5,322.5 C 508.859,323.007 509.859,324.007 510.5,325.5C 513.435,322.037 516.768,321.703 520.5,324.5C 520.291,325.086 519.957,325.586 519.5,326C 515.514,326.499 511.514,326.666 507.5,326.5C 507.5,325.167 507.5,323.833 507.5,322.5 Z"/></g>
<g><path style="opacity:1" fill="#b5cae0" d="M 502.5,322.5 C 505.956,323.536 506.29,325.203 503.5,327.5C 501.296,326.218 500.962,324.551 502.5,322.5 Z"/></g>
<g><path style="opacity:1" fill="#437ab5" d="M 522.5,313.5 C 524.337,313.639 524.67,314.306 523.5,315.5C 522.702,315.043 522.369,314.376 522.5,313.5 Z"/></g>
<g><path style="opacity:1" fill="#2b69a8" d="M 511.5,308.5 C 512.725,309.152 513.392,310.319 513.5,312C 513.167,313.167 512.833,314.333 512.5,315.5C 511.752,313.668 510.752,312.001 509.5,310.5C 510.243,309.818 510.909,309.151 511.5,308.5 Z"/></g>
<g><path style="opacity:1" fill="#406ca8" d="M 526.5,308.5 C 531.328,308.385 532.661,310.552 530.5,315C 525.81,315.141 524.477,312.975 526.5,308.5 Z"/></g>
<g><path style="opacity:1" fill="#cfdce3" d="M 527.5,309.5 C 528.586,309.62 529.253,310.287 529.5,311.5C 529.167,312.167 528.833,312.833 528.5,313.5C 527.571,312.311 527.238,310.978 527.5,309.5 Z"/></g>
<g><path style="opacity:1" fill="#376ba7" d="M 516.5,308.5 C 521.328,308.385 522.661,310.552 520.5,315C 515.57,315.427 514.237,313.26 516.5,308.5 Z"/></g>
<g><path style="opacity:1" fill="#cbd7e2" d="M 517.5,309.5 C 518.586,309.62 519.253,310.287 519.5,311.5C 519.167,312.167 518.833,312.833 518.5,313.5C 517.571,312.311 517.238,310.978 517.5,309.5 Z"/></g>
<g><path style="opacity:1" fill="#3c66a4" d="M 502.5,308.5 C 503.873,308.343 505.207,308.51 506.5,309C 506.043,309.414 505.709,309.914 505.5,310.5C 508.078,312.635 507.912,314.635 505,316.5C 502.175,315.416 502.008,314.249 504.5,313C 501.985,312.061 501.318,310.561 502.5,308.5 Z"/></g>
<g><path style="opacity:1" fill="#3b6eaa" d="M 533.5,308.5 C 538.328,308.385 539.661,310.552 537.5,315C 532.57,315.427 531.237,313.26 533.5,308.5 Z"/></g>
<g><path style="opacity:1" fill="#ccc9d7" d="M 534.5,309.5 C 535.586,309.62 536.253,310.287 536.5,311.5C 536.167,312.167 535.833,312.833 535.5,313.5C 534.571,312.311 534.238,310.978 534.5,309.5 Z"/></g>
<g><path style="opacity:1" fill="#de434f" d="M 558.5,304.5 C 565.841,304.334 573.174,304.5 580.5,305C 585.331,308.648 585.665,312.648 581.5,317C 573.833,317.667 566.167,317.667 558.5,317C 553.361,312.973 553.361,308.807 558.5,304.5 Z"/></g>
<g><path style="opacity:1" fill="#f1abb1" d="M 562.5,309.5 C 565.365,309.055 567.865,309.722 570,311.5C 570.71,310.027 571.876,309.36 573.5,309.5C 573.762,310.978 573.429,312.311 572.5,313.5C 569.833,313.5 567.167,313.5 564.5,313.5C 562.889,312.68 562.222,311.346 562.5,309.5 Z"/></g>
<g><path style="opacity:1" fill="#f3b4bb" d="M 575.5,309.5 C 577.716,309.275 579.383,310.108 580.5,312C 577.981,312.741 576.315,311.908 575.5,309.5 Z"/></g>
<g><path style="opacity:1" fill="#5283b6" d="M 519.5,292.5 C 521.042,293.301 522.708,293.634 524.5,293.5C 524.5,294.5 524.5,295.5 524.5,296.5C 520.818,296.665 517.152,296.499 513.5,296C 514.833,295.333 514.833,294.667 513.5,294C 514.784,293.316 515.951,293.483 517,294.5C 517.995,293.934 518.828,293.267 519.5,292.5 Z"/></g>
<g><path style="opacity:1" fill="#4278b1" d="M 509.5,293.5 C 510.5,293.5 511.5,293.5 512.5,293.5C 512.5,294.5 512.5,295.5 512.5,296.5C 511.5,296.5 510.5,296.5 509.5,296.5C 509.5,295.5 509.5,294.5 509.5,293.5 Z"/></g>
<g><path style="opacity:1" fill="#5787b9" d="M 501.5,291.5 C 504.91,291.384 506.244,293.05 505.5,296.5C 504.167,296.5 502.833,296.5 501.5,296.5C 501.5,294.833 501.5,293.167 501.5,291.5 Z"/></g>
<g><path style="opacity:1" fill="#9c6a3d" d="M 519.5,255.5 C 521.138,256.657 522.804,257.824 524.5,259C 529.489,259.499 534.489,259.666 539.5,259.5C 539.5,260.5 539.5,261.5 539.5,262.5C 533.4,263.767 527.233,264.767 521,265.5C 518.256,265.59 515.756,264.923 513.5,263.5C 515.993,263.521 518.66,263.187 521.5,262.5C 520.877,260.289 519.877,258.289 518.5,256.5C 518.624,255.893 518.957,255.56 519.5,255.5 Z"/></g>
<g><path style="opacity:1" fill="#cbb38c" d="M 519.5,255.5 C 518.957,255.56 518.624,255.893 518.5,256.5C 519.877,258.289 520.877,260.289 521.5,262.5C 518.66,263.187 515.993,263.521 513.5,263.5C 512.167,262.833 511.167,261.833 510.5,260.5C 510.435,260.062 510.601,259.728 511,259.5C 513.09,262.009 514.923,261.675 516.5,258.5C 515.276,256.161 515.276,253.828 516.5,251.5C 517.524,252.852 518.524,254.185 519.5,255.5 Z"/></g>
<g><path style="opacity:1" fill="#974e27" d="M 536.5,255.5 C 535.817,257.176 534.483,257.843 532.5,257.5C 528.649,256.157 525.483,253.823 523,250.5C 522.409,249.517 522.743,248.85 524,248.5C 526.489,250.319 528.989,252.152 531.5,254C 533.025,255.009 534.692,255.509 536.5,255.5 Z"/></g>
<g><path style="opacity:1" fill="#c88747" d="M 573.5,247.5 C 565.542,250.488 557.542,253.488 549.5,256.5C 548.539,254.735 548.205,252.735 548.5,250.5C 552.326,249.412 555.992,248.079 559.5,246.5C 564.007,244.887 568.673,244.221 573.5,244.5C 573.5,245.5 573.5,246.5 573.5,247.5 Z"/></g>
<g><path style="opacity:1" fill="#e4d3b4" d="M 533.5,244.5 C 534.628,250.628 538.295,253.961 544.5,254.5C 542.001,256.124 539.335,256.457 536.5,255.5C 534.692,255.509 533.025,255.009 531.5,254C 528.989,252.152 526.489,250.319 524,248.5C 522.743,248.85 522.409,249.517 523,250.5C 525.483,253.823 528.649,256.157 532.5,257.5C 534.948,258.473 537.615,258.806 540.5,258.5C 540.768,260.099 540.434,261.432 539.5,262.5C 539.5,261.5 539.5,260.5 539.5,259.5C 534.489,259.666 529.489,259.499 524.5,259C 522.804,257.824 521.138,256.657 519.5,255.5C 518.524,254.185 517.524,252.852 516.5,251.5C 515.276,253.828 515.276,256.161 516.5,258.5C 514.923,261.675 513.09,262.009 511,259.5C 510.601,259.728 510.435,260.062 510.5,260.5C 508.559,258.989 508.059,256.989 509,254.5C 513.133,250.189 517.966,247.022 523.5,245C 526.817,244.502 530.15,244.335 533.5,244.5 Z"/></g>
<g><path style="opacity:1" fill="#c29d6c" d="M 547.5,243.5 C 548.702,244.405 550.036,244.405 551.5,243.5C 551.238,244.978 551.571,246.311 552.5,247.5C 554.747,246.626 557.08,246.292 559.5,246.5C 555.992,248.079 552.326,249.412 548.5,250.5C 548.205,252.735 548.539,254.735 549.5,256.5C 549.389,257.117 549.056,257.617 548.5,258C 545.854,258.497 543.187,258.664 540.5,258.5C 537.615,258.806 534.948,258.473 532.5,257.5C 534.483,257.843 535.817,257.176 536.5,255.5C 539.335,256.457 542.001,256.124 544.5,254.5C 542.098,251.785 539.432,249.285 536.5,247C 540.412,248.194 543.912,250.361 547,253.5C 547.498,250.183 547.665,246.85 547.5,243.5 Z"/></g>
<g><path style="opacity:1" fill="#d5bc93" d="M 565.5,229.5 C 562.059,229.301 558.726,229.801 555.5,231C 555.833,231.333 556.167,231.667 556.5,232C 555.167,232.333 553.833,232.667 552.5,233C 553.517,234.049 553.684,235.216 553,236.5C 550.28,232.356 546.78,231.523 542.5,234C 541.549,234.718 541.383,235.551 542,236.5C 544.805,238.131 546.638,240.464 547.5,243.5C 547.665,246.85 547.498,250.183 547,253.5C 543.912,250.361 540.412,248.194 536.5,247C 539.432,249.285 542.098,251.785 544.5,254.5C 538.295,253.961 534.628,250.628 533.5,244.5C 533.794,240.9 534.46,237.4 535.5,234C 543.711,232.52 551.711,230.354 559.5,227.5C 561.167,227.667 562.833,227.833 564.5,228C 565.056,228.383 565.389,228.883 565.5,229.5 Z"/></g>
<g><path style="opacity:1" fill="#dfbf8c" d="M 568.5,231.5 C 574.305,235.517 575.972,240.851 573.5,247.5C 573.5,246.5 573.5,245.5 573.5,244.5C 568.673,244.221 564.007,244.887 559.5,246.5C 557.08,246.292 554.747,246.626 552.5,247.5C 551.571,246.311 551.238,244.978 551.5,243.5C 551.414,242.504 551.748,241.671 552.5,241C 558.03,241.066 563.03,239.566 567.5,236.5C 568.309,234.929 568.643,233.262 568.5,231.5 Z"/></g>
<g><path style="opacity:1" fill="#d8985b" d="M 565.5,229.5 C 567.027,229.427 568.027,230.094 568.5,231.5C 568.643,233.262 568.309,234.929 567.5,236.5C 563.03,239.566 558.03,241.066 552.5,241C 551.748,241.671 551.414,242.504 551.5,243.5C 550.036,244.405 548.702,244.405 547.5,243.5C 546.638,240.464 544.805,238.131 542,236.5C 541.383,235.551 541.549,234.718 542.5,234C 546.78,231.523 550.28,232.356 553,236.5C 553.684,235.216 553.517,234.049 552.5,233C 553.833,232.667 555.167,232.333 556.5,232C 556.167,231.667 555.833,231.333 555.5,231C 558.726,229.801 562.059,229.301 565.5,229.5 Z"/></g>
<g><path style="opacity:1" fill="#7494bc" d="M 527.5,210.5 C 530.62,210.696 533.954,211.362 537.5,212.5C 536.264,213.357 534.931,214.023 533.5,214.5C 531.591,213.652 529.591,213.318 527.5,213.5C 527.5,212.5 527.5,211.5 527.5,210.5 Z"/></g>
<g><path style="opacity:1" fill="#82a0c5" d="M 520.5,210.5 C 522.167,210.5 523.833,210.5 525.5,210.5C 525.5,211.5 525.5,212.5 525.5,213.5C 523.833,213.5 522.167,213.5 520.5,213.5C 520.5,212.5 520.5,211.5 520.5,210.5 Z"/></g>
<g><path style="opacity:1" fill="#729cc4" d="M 554.5,210.5 C 555.675,210.281 556.675,210.614 557.5,211.5C 556.873,212.417 556.539,213.417 556.5,214.5C 555.624,214.631 554.957,214.298 554.5,213.5C 555.791,212.473 555.791,211.473 554.5,210.5 Z"/></g>
<g><path style="opacity:1" fill="#83a5c8" d="M 549.5,209.5 C 552.389,209.999 553.056,211.499 551.5,214C 547.334,214.328 543.334,214.161 539.5,213.5C 540.641,212.575 540.641,211.741 539.5,211C 543.025,210.821 546.359,210.321 549.5,209.5 Z"/></g>
<g><path style="opacity:1" fill="#c0cee0" d="M 554.5,210.5 C 559.026,210.499 563.693,210.165 568.5,209.5C 568.579,210.93 568.246,212.264 567.5,213.5C 563.893,214.489 560.226,214.823 556.5,214.5C 556.539,213.417 556.873,212.417 557.5,211.5C 556.675,210.614 555.675,210.281 554.5,210.5 Z"/></g>
<g><path style="opacity:1" fill="#7d9fc4" d="M 520.5,198.5 C 523.652,197.959 526.152,198.959 528,201.5C 528.308,200.692 528.808,200.025 529.5,199.5C 533.48,200.202 537.814,200.202 542.5,199.5C 542.5,200.833 542.5,202.167 542.5,203.5C 535.433,203.157 528.433,203.157 521.5,203.5C 520.692,203.192 520.025,202.692 519.5,202C 519.619,200.855 519.952,199.688 520.5,198.5 Z"/></g>
<g><path style="opacity:1" fill="#a0a0a0" d="M 499.5,198.5 C 506.827,197.329 509.994,200.329 509,207.5C 507.32,208.603 505.82,208.27 504.5,206.5C 506.206,203.517 505.706,201.184 503,199.5C 499.08,201.095 498.58,203.429 501.5,206.5C 500.409,207.888 499.076,208.388 497.5,208C 495.861,204.327 496.528,201.16 499.5,198.5 Z"/></g>
</svg>
